/* XPM */
static char *dee7717b4bf6425dd9019f2a2554364diqD5aa1OJfQnASGk[] = {
/* columns rows colors chars-per-pixel */
"64 64 147 2 ",
"   c #161C2E",
".  c #1A2135",
"X  c #1C2338",
"o  c #1F263C",
"O  c #22293D",
"+  c #302C35",
"@  c #363435",
"#  c #3C3439",
"$  c #443E38",
"%  c #4A3D3C",
"&  c #3A4132",
"*  c #554B3B",
"=  c #4B5134",
"-  c #64563E",
";  c #5F6536",
":  c #6F7637",
">  c #79733D",
",  c #232B40",
"<  c #252D43",
"1  c #272F45",
"2  c #272F48",
"3  c #28304A",
"4  c #2B344E",
"5  c #2E374D",
"6  c #2E3753",
"7  c #2F3854",
"8  c #303A53",
"9  c #303956",
"0  c #313A58",
"q  c #353F58",
"w  c #353E5D",
"e  c #364157",
"r  c #36415A",
"t  c #36405E",
"y  c #38435B",
"u  c #3A455C",
"i  c #374162",
"p  c #3C4661",
"a  c #3A4466",
"s  c #3C4667",
"d  c #3D4769",
"f  c #3F496A",
"g  c #554440",
"h  c #614B43",
"j  c #634D43",
"k  c #6A5642",
"l  c #6F5B42",
"z  c #7D5D4A",
"x  c #6E6140",
"c  c #726141",
"v  c #404A6B",
"b  c #424E6A",
"n  c #404B6D",
"m  c #434E6F",
"M  c #45516B",
"N  c #505562",
"B  c #454F70",
"V  c #445071",
"C  c #465172",
"Z  c #495672",
"A  c #485374",
"S  c #485575",
"D  c #4A5676",
"F  c #4B5778",
"G  c #4D597A",
"H  c #4E5B7C",
"J  c #505D7A",
"K  c #525F7F",
"L  c #726460",
"P  c #87634E",
"I  c #89644E",
"U  c #896C49",
"Y  c #8F6C4D",
"T  c #887147",
"R  c #947A48",
"E  c #98784C",
"W  c #956C51",
"Q  c #A07355",
"!  c #A97E54",
"~  c #AC7A58",
"^  c #8B7467",
"/  c #808639",
"(  c #8D873F",
")  c #838A39",
"_  c #A7AE3D",
"`  c #B4BB3F",
"'  c #B8BF3F",
"]  c #928644",
"[  c #998745",
"{  c #9F804E",
"}  c #9E9443",
"|  c #9D9A40",
" . c #A0834B",
".. c #A79647",
"X. c #B1904E",
"o. c #B58557",
"O. c #B79052",
"+. c #BD9056",
"@. c #BB9853",
"#. c #A2A140",
"$. c #AEA843",
"%. c #BAA54C",
"&. c #BFB546",
"*. c #BEBB44",
"=. c #ABB15D",
"-. c #858A68",
";. c #AFB37D",
":. c #C09A51",
">. c #C69A55",
",. c #C1BC45",
"<. c #CBB54E",
"1. c #CEA554",
"2. c #D5B850",
"3. c #C8CF41",
"4. c #CECB46",
"5. c #CDC049",
"6. c #D2CD46",
"7. c #DCCB4C",
"8. c #DAD349",
"9. c #E2DD48",
"0. c #D9E042",
"q. c #E9F044",
"w. c #CCD261",
"e. c #EFF473",
"r. c #525F80",
"t. c #536181",
"y. c #556383",
"u. c #576485",
"i. c #586786",
"p. c #5A6888",
"a. c #5A6988",
"s. c #5C6B8A",
"d. c #5C6C8B",
"f. c #5F6F8F",
"g. c #5F6F90",
"h. c #607090",
"j. c #617192",
"k. c #8B8E97",
"l. c #B6B8BD",
"z. c #C19B82",
"x. c #D6BDAC",
"c. c #BFC39C",
"v. c #D0D481",
"b. c #F4F8A2",
"n. c #C5C6CB",
"m. c #EDEDEF",
"M. c white",
/* pixels */
"j.j.j.j.j.j.j.j.j.j.j.j.j.j.j.j.j.j.j.j.j.j.j.j.j.j.j.j.f.u.H C v v v v v v v v v v v v v v v v v v v v v v v v v v v v v v v v ",
"j.j.j.g.f.f.f.f.f.f.f.f.f.f.f.f.f.f.f.f.f.f.f.f.f.f.f.f.f.y.G B f f f f f f f f f f f f f f f f f f f f f f f f f f f v v v v v ",
"j.j.f.f.f.f.f.f.f.f.f.f.f.f.f.f.f.f.f.f.f.f.f.f.f.f.f.f.a.t.F m d d d d d d d d d d d d d d d d d d d d d d d d d f f v v v v v ",
"j.g.f.d.s.s.s.s.s.s.s.s.s.s.s.s.s.s.s.s.s.s.s.s.s.s.s.s.a.K D m s s s s s s s s s s s s s s s s s s s s s s s s s d f f v v v v ",
"j.f.f.s.a.a.a.a.a.a.a.a.a.a.a.a.a.a.a.a.a.a.a.a.a.a.a.a.i.K D n a a a a a a a a a a a a a a a a a a a a a a a a a d f f v v v v ",
"j.f.f.s.a.a.a.a.a.a.a.a.a.a.a.a.a.a.a.a.a.a.a.a.a.a.a.a.i.K D n a a a a a a a a a a a a a a a a a a a a a a a a a d f f v v v v ",
"j.f.f.s.a.a.a.a.a.a.a.a.a.a.a.a.a.a.a.a.a.a.a.a.a.a.a.a.i.K D n a a a a a a a a a a a a a a a a a a a a a a a a a d f f v v v v ",
"j.f.f.s.a.a.a.a.a.a.a.a.a.a.a.a.a.a.a.a.a.a.a.a.a.a.a.a.i.K D n a a a a a a a a a a a a a a a a a a a a a a a a a d f f v v v v ",
"j.f.f.s.a.a.a.a.a.a.a.a.a.a.a.a.a.a.a.a.a.a.a.a.a.a.a.a.i.K D n a a a a a a a a a a a a a a a a a a a a a a a a a d f f v v v v ",
"j.f.f.s.a.a.a.a.a.a.a.a.a.a.a.a.a.a.a.a.a.a.a.a.a.a.a.a.i.K D n a a a a a a a a a a a a a a a a a a a a a a a a a d f f v v v v ",
"j.f.f.s.a.a.a.a.a.a.a.a.a.a.a.a.a.a.a.a.a.a.a.a.a.a.a.a.i.K D n a a a a a a a a a a a a a a a a a a a a a a a a a d f f v v v v ",
"j.f.f.s.a.a.a.a.a.a.a.a.a.a.a.a.a.a.a.a.a.a.a.a.a.a.a.a.i.K D n a a a a a a a a a a a a a a a a a a a a a a a a a d f f v v v v ",
"j.f.f.s.a.a.a.a.a.a.a.a.a.a.a.a.a.a.a.a.a.a.a.a.a.a.a.a.i.K D n a a a a a a 3 3 0 a a a a a a a a a a a a a a a a d f f v v v v ",
"j.f.f.s.a.a.a.a.a.a.a.a.a.a.a.a.a.a.a.a.a.a.a.a.a.a.a.a.i.K D n a a a a a a   =   o a a a a a a a a a a a a a a a d f f v v v v ",
"j.f.f.s.a.a.a.a.a.a.a.a.a.a.a.a.a.a.a.a.a.a.a.a.a.a.a.a.i.K D n a a a a a a   q.q./ o a a a a a a a a a a a a a a d f f v v v v ",
"j.f.f.s.a.a.a.a.a.a.a.a.a.a.a.a.a.a.a.a.a.a.a.a.a.a.a.a.i.K D n a a a a 0     7.2.q...o a a a a a a a a a a a a a d f f v v v v ",
"j.f.f.s.a.a.a.a.a.a.a.a.a.a.a.a.a.a.a.a.a.a.a.a.a.a.a.a.i.K D n a a a a o N k.$ $.2.1.$ 3 a a a a a a a a a a a a d f f v v v v ",
"j.f.f.s.a.a.a.a.a.a.a.a.a.a.a.a.a.a.a.a.a.a.a.a.a.a.a.a.i.K D t o         N M.n.  c   o 0 a a a a a a a a a a a a d f f v v v v ",
"j.f.f.s.a.a.a.a.a.a.a.a.a.a.a.a.a.a.a.a.a.a.a.a.a.a.a.a.i.K ,   = ` b.b.` = N c.`   3 a a a a a a a a a a a a a a d f f v v v v ",
"j.f.f.s.a.a.a.a.a.a.a.a.a.a.a.a.a.a.a.a.a.a.a.a.a.a.a.a.i.b   = q.b.M.M.M.q...  /   3 a a a a a a a a a a a a a a d f f v v v v ",
"j.f.f.s.a.a.a.a.a.a.a.a.a.a.a.a.a.a.a.a.a.a.a.a.a.a.a.a.i.< = ` q.b.M.x.M.q.7.$   =   o a a a a a a a a a a a a a d f f v v v v ",
"j.f.f.s.a.a.a.a.a.a.a.a.a.a.a.a.a.a.a.a.a.a.a.a.a.a.y y     ` ` / -.z.z.M.q.q.1.  q.q./ o a a a a a a a a a a a a d f f v v v v ",
"j.f.f.s.a.a.a.a.a.a.a.a.a.a.a.a.a.a.a.a.a.a.a.a.a.1   = > o. .  $ $ h ~ q.q.`     7.2.q...o a a a a a a a a a a a d f f v v v v ",
"j.f.f.s.a.a.a.a.a.a.a.a.a.a.a.a.a.a.a.a.a.a.a.a.1 = b.b.9.2.c    .7.q.<.8.q.= N k.$ $.2.1.$ 3 a a a a a a a a a a d f f v v v v ",
"j.f.f.s.a.a.a.a.a.a.a.a.a.a.a.a.a.a.a.a.a.a.a.y = e.M.M.q.9.>     c =         N M.n.  c   o 0 a a a a a a a a a a d f f v v v v ",
"j.f.f.s.a.a.a.a.a.a.a.a.a.a.a.a.a.a.a.a.a.a.a.  / b.M.b.<.@.q.=     = ` b.b.` = N c.`   3 a a a a a a a a a a a a d f f v v v v ",
"j.f.f.s.a.a.a.a.a.a.a.a.a.a.a.a.a.a.a.a.a.a.a.  2.q.q.q.8.~ h     = q.b.M.M.M.q...  /   3 a a a a a a a a a a a a d f f v v v v ",
"j.f.f.s.a.a.a.a.a.a.a.a.a.a.a.a.a.a.a.a.a.a.Z   1.q.q.q.q.<.~ # = ` q.b.M.x.M.q.7.$   o a a a a a a a a a a a a a d f f v v v v ",
"f.f.a.a.i.i.i.i.i.u.i.i.i.i.i.i.i.i.i.i.1       1.9.q.q./ h     ` ` / -.z.z.M.q.q.1.c o d d d d d d d d d d d d d f v n m m m m ",
"u.y.t.K K K K K K K K K K K K K K K K <          .1.9.=   = > o. .  $ $ h ~ q.q.q.1.c   C C C C C C C C C C C C C C A D F F F F ",
"H G F D D D D D D D D D D D D D D D ,     = ` -.$ 1.$ = b.b.9.2.c    .7.q.<.8.q.9.1.1.  9     8 G G G G G G G G G H K r.t.t.t.t.",
"C B m m n n n n n n f n n n n n n t     = q.b.m.  $ = e.M.M.q.9.>     c ` q.q.q.2.1.>.  q / / = < y.t.t.y.y.y.y.y.u.i.a.a.a.a.a.",
"v f d s a a a a a a a a a a a a a 3   = ` q.b.l.L   / b.M.b.<.@.q.= = $   1.7.7.1.o.~   1 / 7.q.` 1 a.a.a.a.a.a.a.f.f.j.j.j.j.j.",
"v f d s a a a a a a a a a a a 3 3     ` ` / -.^ ^   2.q.q.q.8.~ h   q...  1.o.~ ~ ~ P     = 1.9.2.c 1 a.a.a.a.a.a.f.f.j.j.j.j.j.",
"v f d s a a a a a a a a a a o   = > o. .  $ $ g z   1.q.q.q.q.<.~ P h   = q.2.o.~ P     M.n.  .. .c   a.a.a.a.a.a.f.f.j.j.j.j.j.",
"v f d s a a a a a a a a a o = b.b.9.2.c    .7.q.<.  1.9.q.q.q.~ @.<.<./ ` q.7.+.~ h     N M.c.    y a.a.a.a.a.a.a.f.f.j.j.j.j.j.",
"v f d s a a a a a a a a 3 = e.M.M.q.9.>     c ` q.=  .1.9.q.q.<.q.q.q.q.q.q.7.+.~ ~ h   >   ` /   a.a.a.a.a.a.a.a.f.f.j.j.j.j.j.",
"v f d s a a a a a a a a   / b.M.b.<.@.q.= = $   1.> $ 1.1.7.9.q.q.q.q.q.q.9.1.o.~ ~ #   q.c     1 a.a.a.a.a.a.a.a.s.f.j.j.j.j.j.",
"v f d s a a a a a a a a   2.q.q.q.8.~ h   q...  1.!    .1.1.1.1.7.7.7.7.2.1.>.~ ~ P   : q.2.c   a.a.a.a.a.a.a.a.a.f.f.j.j.j.j.j.",
"v f d s a a a a a a a a   1.q.q.q.q.<.~ P h   = q.[ k   E 1.1.1.1.1.1.1.1.+.~ ~ h     =.3.7.1.  y a.a.a.a.a.a.a.a.f.f.j.j.j.j.j.",
"v f d s a a a a a 0       1.9.q.q.q.~ @.<.<./ ` q.} U j   # k E +.1.>.+.P h h     + x _ 3.7.1.$ y a.a.a.a.a.a.a.a.f.f.j.j.j.j.j.",
"v f d s a a a a 0   / ` =  .1.9.q.q.<.q.q.q.q.q.q.5.U z z +                   * #._ _ ' q.1.1.c y a.a.a.a.a.a.a.a.f.f.j.j.j.j.j.",
"v f d s a a a 0   ` M.M./ $ 1.1.7.9.q.q.q.q.q.q.9.1.o.W I +   _ l.l.;.] _ ;       ( 6.q.7.1.+.h y a.a.a.a.a.a.a.a.f.f.j.j.j.j.j.",
"v f d s a a a o / b.M.M.4.   .1.1.1.1.7.7.7.7.2.1.>.~ ~ P   @ 3.v.w.3.W { & = 7.$ c >.+.+.o.~ h y a.a.a.a.a.a.a.a.f.f.j.j.j.j.j.",
"v f d s a a a   $.e.b.q.] j   E 1.1.1.1.1.1.1.1.+.~ ~ h     * &.q.q.q.8.~ h = /   > 2.o.~ ~ P   Z a.a.a.a.a.a.a.a.f.f.j.j.j.j.j.",
"v f d s a a a   1.q.q.q._ T j   # k E +.1.>.+.P h h     & & * &.q.q.q.8.~ ~ ~ h   q.q.1.~ P     a.a.a.a.a.a.a.a.a.f.f.j.j.j.j.j.",
"v f d s a a a   1.q.q.q.0.T z z %               ; ; j % & & - 1.9.q.q.<.@.q.q.q.q.q.q.1.~ ~ P   Z a.a.a.a.a.a.a.a.s.f.j.j.j.j.j.",
"v f d s a a a   1.2.q.q.q.~ *.' _ _ _ ; * } _ _ _ | z z W g   1.1.9.q.q.q.q.q.q.q.q.9.1.~ ~ ~   y a.a.a.a.a.a.a.a.f.f.j.j.j.j.j.",
"v f d s a a a 3 c 1.2.q.q.q.q.q.q.q.3.: - X.,.3.3.%.@.q.q.q.= c 1.1.1.7.9.q.q.q.q.7.1.+.~ ~ h   Z a.a.a.a.a.a.a.a.s.f.j.j.j.j.j.",
"v f d s a a a 0   1.1.1.2.7.q.q.q.q.9.2.  1.1.9.q.q.q.q.q.0.)    .1.1.1.1.1.1.1.1.1.>.~ ~ P   O Z a.a.a.a.a.a.a.a.f.f.j.j.j.j.j.",
"v f d s a a a 0 X $ 1.1.1.1.1.1.1.1.1.1.# c 1.1.1.7.9.q.q.3._ >   k +.1.1.1.1.1.>.o.~ P #     u M a.a.a.a.a.a.a.a.s.f.j.j.j.j.j.",
"v f d s a a a 7 7 X # E >.1.1.1.1.1.+.Q j    .1.1.1.1.1.1.:.R R l +     h k c h h       5 5 M M Z a.a.a.a.a.a.a.a.f.f.j.j.j.j.j.",
"v f d s a a a 0 7 7 ,     # h c k h #     .   k +.1.1.1.1.1.O.Y z j +     < < 5 5 u M M M M M J a.a.a.a.a.a.a.a.a.f.f.j.j.j.j.j.",
"v f d s a a a a w 7 7 7 7 , , , , , , 6 2 2 , .     h k c h h       5 3 e e u M M M M J J y.a.a.a.a.a.a.a.a.a.a.a.f.f.j.j.j.j.j.",
"v f d s a a a a a a i w w 7 7 7 7 7 7 7 9 6 4 7 7 3 , , , 1 3 r M M M M M J a.a.a.a.a.a.a.a.a.a.a.a.a.a.a.a.a.a.a.f.f.j.j.j.j.j.",
"v f d s a a a a a a a a a a a a a a a a a a a w w 0 7 7 9 t p b M J J y.a.a.a.a.a.a.a.a.a.a.a.a.a.a.a.a.a.a.a.a.a.f.f.j.j.j.j.j.",
"v f d s a a a a a a a a a a a a a a a a a a a a a a a a d C G y.a.a.a.a.a.a.a.a.a.a.a.a.a.a.a.a.a.a.a.a.a.a.a.a.a.f.f.j.j.j.j.j.",
"v f f d d d d d d d d d d d d d d d d d d d d d d d d d f C H u.f.f.f.f.f.f.f.f.f.f.f.f.f.f.f.f.f.f.f.f.f.f.f.f.f.f.f.j.j.j.j.j.",
"v f f f f f f f f f f f f f f f f f f f f f f f f f f f v A K i.f.f.f.f.f.f.f.f.f.f.f.f.f.f.f.f.f.f.f.f.f.f.f.f.f.f.j.j.j.j.j.j.",
"v v v f f f f f f f f f f f f f f f f f f f f f f f f f n D r.a.j.j.j.j.j.j.j.j.j.j.j.j.j.j.j.j.j.j.j.j.j.j.j.j.j.j.j.j.j.j.j.j.",
"v v v v v v v v v v v v v v v v v v v v v v v v v v v v m F t.a.j.j.j.j.j.j.j.j.j.j.j.j.j.j.j.j.j.j.j.j.j.j.j.j.j.j.j.j.j.j.j.j.",
"v v v v v v v v v v v v v v v v v v v v v v v v v v v v m F t.a.j.j.j.j.j.j.j.j.j.j.j.j.j.j.j.j.j.j.j.j.j.j.j.j.j.j.j.j.j.j.j.j.",
"v v v v v v v v v v v v v v v v v v v v v v v v v v v v m F t.a.j.j.j.j.j.j.j.j.j.j.j.j.j.j.j.j.j.j.j.j.j.j.j.j.j.j.j.j.j.j.j.j.",
"v v v v v v v v v v v v v v v v v v v v v v v v v v v v m F t.a.j.j.j.j.j.j.j.j.j.j.j.j.j.j.j.j.j.j.j.j.j.j.j.j.j.j.j.j.j.j.j.j."
};
