/* XPM */
static char *_33e562f64f94ca59291fb891affda68VKEzMCXWegnDe5vk[] = {
/* columns rows colors chars-per-pixel */
"64 64 79 1 ",
"  c #181425",
". c #1A1729",
"X c #1C1B2D",
"o c #1F1D31",
"O c #201F32",
"+ c #1F2035",
"@ c #212136",
"# c #24253B",
"$ c #282739",
"% c #27283E",
"& c #2A2A3D",
"* c #272942",
"= c #292D45",
"- c #2B2F4A",
"; c #2E3045",
": c #2D324E",
"> c #313144",
", c #32354B",
"< c #35384C",
"1 c #3A3C4F",
"2 c #2F3451",
"3 c #303552",
"4 c #333A54",
"5 c #3B3F53",
"6 c #343C5B",
"7 c #3C435C",
"8 c #374060",
"9 c #3A4365",
"0 c #3F4866",
"q c #3C4768",
"w c #3E4868",
"e c #414458",
"r c #45485E",
"t c #444B65",
"y c #494E63",
"u c #454E6A",
"i c #46506D",
"p c #4D556D",
"a c #445071",
"s c #495370",
"d c #4B5571",
"f c #4B5777",
"g c #4C5774",
"h c #4E5976",
"j c #4B5778",
"k c #4D5978",
"l c #535B71",
"z c #555B71",
"x c #545E77",
"c c #505C78",
"v c #505E7E",
"b c #596076",
"n c #5C667E",
"m c #536180",
"M c #546281",
"N c #566482",
"B c #5A6681",
"V c #586786",
"C c #5A6988",
"Z c #5B6A89",
"A c #5D6B8A",
"S c #5E6C8A",
"D c #656F85",
"F c #64708A",
"G c #637391",
"H c #677694",
"J c #687794",
"K c #6E7A93",
"L c #6A7894",
"P c #707B92",
"I c #707F9C",
"U c #768299",
"Y c #73839E",
"T c #74839F",
"R c #76849F",
"E c #7C8CA7",
"W c #7F8FA9",
"Q c #8190A9",
"! c #8898B2",
/* pixels */
"                                                                ",
"                                                                ",
"                                                                ",
"                                                                ",
"                                                                ",
"                                                                ",
"                                                                ",
"                                                                ",
"  ..XXXXXXXXXX.                                                 ",
" X@&;,<155551>$X                                                ",
".@=47tplbbbbzr,@                                                ",
".&4tcBFKUUUUPbe$                                                ",
"X=7gZHYW!!!!QDy&                                                ",
"X=5imSJTEEEERnr&                                                ",
".&40fMSJIIIILx7$                                                ",
"X#:7ujMAGGGGSp5#                                                ",
".#-6qakMZZZZNu4#                                                ",
".#-6qakMZZZZNu4#                                                ",
".#-6qakMZZZZNu4#                                                ",
".#-6qakMZZZZNu4#                                                ",
".#-6qakMZZZZNu4#   ....XXXXXX..                                 ",
".#-6qakMZZZZNu4# .o@#%=======#@X                                ",
".#-6qakMZZZZNu4# o#=:34777777,&X                                ",
".#-6qakMZZZZNu4#.@=269ushhhhd7>@                                ",
".#-6qakMZZZZNu4#.#-69afmVVVVMu3@                                ",
".#-6qakMZZZZNu4#.@=26qufvvvvk9,@                                ",
".#-6qakMZZZZNu4#.o%:46qaffffa7:@                                ",
".#-6qakMZZZZNu4# o#*:46quuuuw4=O                                ",
".#-6qakMZZZZNu4# X@%=:48999983*o   ...XXXXXXX..                 ",
".#-6qakMZZZZNu4# X@%=:48999983*o .o@#%=======#@X                ",
".#-6qakMZZZZNu4# X@%=:48999983*o X#=:34777777,&X                ",
".#-6qakMZZZZNu4# X@%=:48999983*o @=:69ushhhhd7>@                ",
".#-6qakMZZZZNu4# X+#=:68999983*o.#-69ujmVVVVmu3@                ",
".#-6qakMZZZZNu4#.o+#=:68999983*o.@=26qajvvvvk9,@                ",
".#-6qakMZZZZNu4# o@%=:48999983*o.o%:46quffffa7-@                ",
".#-6qakMZZZZNu4# o#%=:68999983*o o#*:46quuuuw4=O                ",
".#-6qakMZZZZNu4# X@%=:48999983*o X@%=248999983*o     .....      ",
".#-6qakMZZZZNu4# X@#=:48999983*o X@%=248999983*o ..Xoo@@#oX.    ",
".#-6qakMZZZZNu4#.X@%=:48999983*o X@%=:48999983*o .Xo#%*=-%@X    ",
".#-6qakMZZZZNu4# X@%=248999983*o X@%=:48999983*o Xo#*=:34-%X    ",
".#-6qakMZZZZNu4# X+#=:48999983*o X#%=:48999983*o X@#*:4682*o    ",
".#-6qakMZZZZNu4# X+#=:68999983*o X@%=:48999983*o Xo@#*:46:%X    ",
".#-6qakMZZZZNu4# X#%=268999983*o X@%=:68999983*o .Xo+#=:2=#X    ",
".#-6qakMZZZZNu4#.o#%=268999983*o X@%=:68999983*o  ..X+#*-%@X    ",
".#-6qakMZZZZNu4#.X@%=:48999983*o X+%=:68999983*o     X@%*#o.    ",
".#-6qakMZZZZNu4# X@%=:68999983*o X#%=:48999983*o     X@%*#o.    ",
".#-6qakMZZZZNu4# X@%=:48999983*o.o#%=:48999983*o     X@%*#o.    ",
".#-6qakMZZZZNu4# X@%=:48999983*o o#%=:48999983*o     X@%*#o.    ",
".#-6qakMZZZZNu4# X@%=:48999983*o X#%=248999983*o     X@%*#+.    ",
".#-6qakMZZZZNu4# X@%=:48999983*o X@%=248999983*o     X@%*#+X    ",
".#-6qakMZZZZNu4# X@%=:48999983*o X+%=:48999983*o     X@%*#o.    ",
".#-6qakMZZZZNu4# X@%=:48999983*o X+#=:48999983*o     X@%*#o.    ",
".#-6qakMZZZZNu4# X@%=268999983*o X@%=:68999983*o     X@#*#o.    ",
".#-6qakMZZZZNu4# o+%=:68999983*o o+%=:68999983*o     X@%*#o.    ",
".#-6qakMZZZZNu4# X@%=:48999983*o X@%=:48999983*o    .o@%*#o.    ",
".#-6qakMZZZZNu4# X@%=:48999983*o X@%=:48999983*o    .o#%*#o.    ",
".#-49ufvNNNNvt,@ X@#*:3688886:*o X@#*:3688886:*o     X@#*#o.    ",
".o%-367tuuuut4=O Xo@#*-:3333:=#X Xo@#*-:3333:=#X     Xo@#oX.    ",
" X@%==:,4444,=#X .Xoo@#%*****#o. .Xoo@#%*****#o.     .XooX..    ",
" .XXoO@@####@OX. ....XXooooooX.  ....XXooooooX.       .....     ",
"                                                                ",
"                                                                ",
"                                                                ",
"                                                                "
};
