/* XPM */
static char *_bec9449eeb7400bf6d05b9d01ca26c9VbkApUAfGMohEH8Z[] = {
/* columns rows colors chars-per-pixel */
"64 64 231 2 ",
"   c #171E1C",
".  c #1C1D1B",
"X  c #231B15",
"o  c #221A1C",
"O  c #0E1E2F",
"+  c #181425",
"@  c #151D24",
"#  c #1B1B25",
"$  c #171629",
"%  c #1A1729",
"&  c #151B2D",
"*  c #1C1A2C",
"=  c #0E1D35",
"-  c #0B1E3B",
";  c #131C33",
":  c #161937",
">  c #1E1D32",
",  c #211A22",
"<  c #21192B",
"1  c #201D32",
"2  c #0C222E",
"3  c #1A2028",
"4  c #022233",
"5  c #0E2133",
"6  c #1E2235",
"7  c #1C223B",
"8  c #182538",
"9  c #3B342F",
"0  c #212136",
"q  c #272835",
"w  c #24243A",
"e  c #232A3E",
"r  c #2A2A3D",
"t  c #36343D",
"y  c #41312B",
"u  c #4B3F39",
"i  c #4A423C",
"p  c #524C3F",
"a  c #1C2A44",
"s  c #1E3649",
"d  c #1B394A",
"f  c #1E2650",
"g  c #242741",
"h  c #252A43",
"j  c #2A2D44",
"k  c #252F4A",
"l  c #2B2F4A",
"z  c #253345",
"x  c #29364A",
"c  c #2C324D",
"v  c #32354B",
"b  c #36384C",
"n  c #2C3552",
"m  c #253854",
"M  c #303552",
"N  c #343A53",
"B  c #3B3F53",
"V  c #343C5A",
"C  c #4B3E44",
"Z  c #483F47",
"A  c #1B4551",
"S  c #294457",
"D  c #364B56",
"F  c #35415B",
"G  c #38465A",
"H  c #3B435C",
"J  c #2A4464",
"K  c #364161",
"L  c #394364",
"P  c #364B63",
"I  c #3C4768",
"U  c #2C5162",
"Y  c #395467",
"T  c #3D526C",
"R  c #3E4F74",
"E  c #385474",
"W  c #3B5C73",
"Q  c #2D6069",
"!  c #3C656F",
"~  c #3B6374",
"^  c #3D6878",
"/  c #484344",
"(  c #444248",
")  c #574B48",
"_  c #51514A",
"`  c #454659",
"'  c #544B52",
"]  c #594A52",
"[  c #505454",
"{  c #66564C",
"}  c #7A6A4E",
"|  c #6F6B57",
" . c #766755",
".. c #746A5B",
"X. c #444B65",
"o. c #494E63",
"O. c #454F6A",
"+. c #46526C",
"@. c #535462",
"#. c #484D73",
"$. c #445071",
"%. c #4A5674",
"&. c #465978",
"*. c #4C5979",
"=. c #545C73",
"-. c #505E7C",
";. c #596076",
":. c #5C667E",
">. c #43707B",
",. c #6D696B",
"<. c #746562",
"1. c #72726F",
"2. c #887C6B",
"3. c #967D68",
"4. c #857D77",
"5. c #917E75",
"6. c #7E846A",
"7. c #8A8169",
"8. c #94816C",
"9. c #848378",
"0. c #978B7A",
"q. c #989576",
"w. c #9D927A",
"e. c #BD9768",
"r. c #A58D77",
"t. c #A99778",
"y. c #B69979",
"u. c #C1A57D",
"i. c #3E5A82",
"p. c #3A6B85",
"a. c #456784",
"s. c #556382",
"d. c #576586",
"f. c #5A6988",
"g. c #457584",
"h. c #4A768B",
"j. c #527F8E",
"k. c #477A95",
"l. c #657088",
"z. c #647492",
"x. c #6A7894",
"c. c #707B92",
"v. c #707F9C",
"b. c #3B8996",
"n. c #3C8994",
"m. c #3D879B",
"M. c #47858B",
"N. c #448494",
"B. c #4A8295",
"V. c #44849B",
"C. c #4A8998",
"Z. c #548596",
"A. c #489497",
"S. c #549696",
"D. c #6B908D",
"F. c #708E90",
"G. c #75839B",
"H. c #46A19F",
"J. c #7FA296",
"K. c #4E9DA1",
"L. c #7D8DA7",
"P. c #4CABA3",
"I. c #57A8A8",
"U. c #5CB3AE",
"Y. c #5CB2B1",
"T. c #66AAAB",
"R. c #68B0A7",
"E. c #64AEB2",
"W. c #6BADB2",
"Q. c #898887",
"!. c #91998E",
"~. c #8E8C93",
"^. c #A59C81",
"/. c #B39A82",
"(. c #96B290",
"). c #B7A98D",
"_. c #A8AA95",
"`. c #B3AF95",
"'. c #8E94A5",
"]. c #8898B2",
"[. c #B7B2B4",
"{. c #C2A788",
"}. c #CDB68C",
"|. c #CBB989",
" X c #D4B585",
".X c #DAB484",
"XX c #D2B984",
"oX c #D4B58B",
"OX c #DAB28E",
"+X c #CDB693",
"@X c #CBB893",
"#X c #CBB79A",
"$X c #C5B998",
"%X c #D3B492",
"&X c #D0B498",
"*X c #C3B7A6",
"=X c #9CC1A7",
"-X c #A6CDA8",
";X c #DCC28B",
":X c #D9C595",
">X c #DCD19F",
",X c #E4CB97",
"<X c #D6CBA7",
"1X c #D9D5A4",
"2X c #DAD3B6",
"3X c #E0CCA0",
"4X c #E7D6A5",
"5X c #E9D6AB",
"6X c #F3DFAA",
"7X c #E9DCB8",
"8X c #F2DEB5",
"9X c #EDE3A4",
"0X c #EEE2AC",
"qX c #F3E1A8",
"wX c #EBE3B2",
"eX c #E6E4B9",
"rX c #F2E4B7",
"tX c #C5C5C7",
"yX c #DEDBC6",
"uX c #E5DDC2",
"iX c #EAE6C8",
"pX c #F1E9C9",
"aX c #F5F0CE",
"sX c #EEEED9",
"dX c #F4EDD4",
"fX c #F5ECDB",
"gX c #F5F3D4",
"hX c #F1EBE1",
"jX c #FCF8EB",
"kX c #FCF9F7",
"lX c #FFFDF4",
/* pixels */
"+ + + + + + + + + + + + + + + + + + + + + + + + + + + + + + + + + + + + + + + + + + + + + + + + + + + + + + + + + + + + + + + + ",
"+ + + + + + + + + + + + + + + + + + + + + + + + + + + + + + + + + + + + + + + + + + + + + + + + + + + + + + + + + + + + + + + + ",
"+ + + + + + + + + + + + + + + + + + + + + + + + + + + + + + + + + + + + + + + + + + + + + + + + + + + + + + + + + + + + + + + + ",
"+ + + + + + + + + + + + + + + + + + + + + + + + + + + + + + + + + + + + + + + + + + + + + + + + + + + + + + + + + + + + + + + + ",
"+ + + + + + + + + + + + + + + + + + + + + + + + + + + + + + + + + + + + + + + + + + + + + + + + + + + + + + + + + + + + + + + + ",
"+ + + + + + + + + + + + + + + + + + + + + + + + + + + + + + + + + + + + + + + + + + + + + + + + + + + + + + + + + + + + + + + + ",
"+ + + + + + + + + + + + + + + + + + + + + + + + + + + + + + + + + + + + + + + + + + + + + + + + + + + + + + + + + + + + + + + + ",
"+ + + + + + + + + + + + + + + + + + + + + + + + + + + + + + + + + + + + + + + + + + + + + + + + + + + + + + + + + + + + + + + + ",
"+ + % % * * * * * * 1 1 * * % + + + + + + + + + + + % + + + + + + + + + + + + + + + + + + + + + + + + + + + + + + + + + + + + + ",
"+ * 0 r j v b B B B B B B v q * + + + + + + + % & s P d 5 & + + + + + + + + + + + + + + + + + + + + + + + + + + + + + + + + + + ",
"% 0 j N H X.+.=.;.;.;.;.=.` v 0 + + + + + + % ; = d Z.~ ! S = & + + + + + + + + + + + + + + + + + + + + + + + + + + + + + + + + ",
"% r N X.-.d.l.c.G.G.G.G.c.;.` r + + + + + + & x ^ N.K.E.I.K.E.Q s % + + + + + + + + + + + + + + + + + + + + + + + + + + + + + + ",
"* j H %.f.x.G.L.].].].].'.l.o.r + + + + $ 5 a g.n.P.Y.Y.H.P.Y.E.W.A $ + + + + + + + + + + + + + + + + + + + + + + + + + + + + + ",
"* j B +.s.f.x.G.L.L.L.L.G.:.` r + + + + & - Z.N.b.A.E.U.U.P.A.Y.U.A.s + + + + + + + + + + + + + + + + + + + + + + + + + + + + + ",
"% r N I *.s.f.x.v.v.v.v.x.=.H r + + + + : K p.V.B.U ~ ! T.U.I.M.E.U.^ & + + + + + + + + + + + + + + + + + + + + + + + + + + + + ",
"% w c H O.*.s.f.z.z.z.z.f.%.B w + + + + ; &.k.p.- - ; ; 2 M.U.I.A W.I.s + + + + + + + + + + + + + + + + + + + + + + + + + + + + ",
"% w l V I $.*.s.f.f.f.f.s.O.N w + + + + = ~ N.k.R O.O.g & 5 M.E.M.A U.U % + + + + + + + + + + + + + + + + + + + + + + + + + + + ",
"% w l V I $.*.s.f.f.f.f.s.O.N w + + + + ; m ~ j.&.#.$.T ; & 5 Z.I.4 S.S $ + + + + + + + + + + + + + + + + + + + + + + + + + + + ",
"% w l V I $.*.s.f.f.f.f.s.O.N w + + + + + : c T R R K a ; & ; Y g.Y g.F $ + + + + + + + + + + + + + + + + + + + + + + + + + + + ",
"% w l V I $.*.s.f.f.f.f.s.O.N w + + + + + + ; ; ; ; ; $ + + ; P U d W ; + + + + + + + + + + + + + + + + + + + + + + + + + + + + ",
"% w l V I $.*.s.f.f.f.f.s.O.N w + + + % % % % * > > * * % & ; P m T z & + + + + + + + + + + + + + + + + + + % + + + + + + + + + ",
"% w l V I $.*.s.f.f.f.f.s.O.N w + % > 0 w w j j j j 0 t [ _ q H ; e D ,.# % + + + + + + + + + + + + + + + ( $X+ + + + + + + + + ",
"% w l V I $.*.s.f.f.f.f.s.O.N w + > w j c M N H H j * _.yX[.'.'.~.~.tXkX[.* % + + + + + + + + + + + + + ( +X$X+ + + + + + + + + ",
"% w l V I $.*.s.f.f.f.f.s.O.N w % 0 j n V L O.%.L * ' o u uXpXdXyXuX2X<X2...# + + + + + + + + + + + + ( $XdX( + + + + + + + + + ",
"% w l V I $.*.s.f.f.f.f.s.O.N w % w l V L O.*.s.h # 5.y.4X0XwXwX7XdXgXaX4X|. .+ + + + + + + + + + + * $XhXjX& + + + + + + + + + ",
"% w l V I $.*.s.f.f.f.f.s.O.N w % 0 j n V I O.O.> ] 8.u.XXqXwXaXdXfXkXlXjX8X<X, + + + + + + + + + ` # hXlXiX* + + + + + + + + + ",
"% w l V I $.*.s.f.f.f.f.s.O.N w % > w c V V I V * 8.3.%XoX6X0X0X0X0XpX9...5X8X..+ + + + + + + + * ^.).kXdXeX# + + + + + + + + + ",
"% w l V I $.*.s.f.f.f.f.s.O.N w + > w h c V V h #  .r.oX XXX4X0X0X0XdXQ.o $XdX2.@ + + + + + + + 0 ^.gXlX+X5X# + + + + + + + + + ",
"% w l V I $.*.s.f.f.f.f.s.O.N w + * 0 w j c V 7 ' 3.y.oX.X X X,X4XdXlX~.# ..3X).( * * * * % % * 6 0.aX<X,X^.$ + + + + + + + + + ",
"% w l V I $.*.s.f.f.f.f.s.O.N w % > 6 w j n n * ' 3.{..X.X.XoXXXqXwXsXQ.: Z |.dX* j j j j w 0 g @ iX5XXX:Xo % + + + + + + + + + ",
"% w l V I $.*.s.f.f.f.f.s.O.N w ; Z # w j c c & _ 3.{.OX.X X}.@X7XwXjX@.; * | 4.; n H H H v c 7 6.wX;XoX..% + + + + + + + + + + ",
"% w l V I $.*.s.f.f.f.f.s.O.N w ; Z w.i w c c 6 @ 9 7.t.|.} X . # , 1 & 3 @ < . @ c *.*.%.H M # eX>X X&X, % + + + + + + + + + + ",
"% w l V I $.*.s.f.f.f.f.s.O.N w ; 5 u #Xi 7 n w * 8.3.oX X:XrX2._ * # ; & * Z `.4.e d.d.:.O.w 9.`.} }. .# + + + + + + + + + + + ",
"% w l V I $.*.s.f.f.f.f.s.O.N w ; ^ s / `./ # > * ] r.y.e. X}.3XwXeXgXtX& # w.5XiX6 -.-.*.H . iX .r.#X. + + + + + + + + + + + + ",
"% w l V I $.*.s.f.f.f.f.s.O.N w ; B.B.>.@.8.2.t # . <.3.y.oXoXXX4X0XrXjX# ( <XgXeX3 *.*.$.e 6.<Xy %X .$ + + + + + + + + + + + + ",
"% w l V I $.*.s.f.f.f.f.s.O.N w ; B.b.B.Z.0.).#Xr.| o ) {  XXX X;X8X8XjX# ..4XrX^.$ 5 a K , 1X2.} #Xo + + + + + + + + + + + + + ",
"% w l V I $.*.s.f.f.f.f.s.O.N w = B.n.b.M.|.} X p 1.7XwX. ..|.oXOX0X9XiXQ.2XqXrX_ @ W.j.;  .r., +X..* + + % % % % % + + + + + + ",
"% w l V I $.*.s.f.f.f.f.s.O.N w = V.N.K.S.@XoX}.q.Z . |.# % ..r.oX0X0XrXdXrX:X^.@ >.d >.@ #X/ ' #X# % * > > 1 0 w > * % + + + + ",
"% w l V I $.*.s.f.f.f.f.s.O.N w ; N.b.A.T.iX5X.XXX+X  1X# : < * i ).eXpXaXwX).q 5 E.g.2 ,.w.o 5.) > * > w w h j l w 0 * + + + + ",
"% w l V I $.*.s.f.f.f.f.s.O.N w ; M.m.m.I.-X>X;X X}.o +X# h w & @ # / 1.iX7.# O.a g.C.^ @ # ' 5.* ; 6 w h j c M V l w * + + + + ",
"% w l V I $.*.s.f.f.f.f.s.O.N w & _.F.j.A.(.1X6X XoX) }.# J &.T m f & # # @ F d.O.5 U V.h.m & # v F z 7 h c V V K n h > + + + + ",
"% w l V I $.*.s.f.f.f.f.s.O.N w % XXXX`.J.(.|.oX XoX .@X# m k.k.i.E S 8 : K a.a.n # _ ; P &.T m = n z 6 e h c V V c w * + + + + ",
"% w l V I $.*.s.f.f.f.f.s.O.N w % }.OX5XeX(._.%XXX}.3.|.# n g.N.V.k.W E R &.h.J & ' 7././ @ v K n a & > 6 e j c n j w * + + + + ",
"% w l V I $.*.s.f.f.f.f.s.O.N w & | .X:X1X=XS.D._.#X) }.* J N.N.m.V.V.p.a.h.W = % ) y. XoX{ # ; m ; % % * 6 e h l w 0 * + + + + ",
"% w l V I $.*.s.f.f.f.f.s.O.N w % Z oX X:X_.R.A.S.D.. {.* m E a.Z.V.n.N.B.W - ; * t w.}.+X*X# > $ & + + + * 0 e h w > % + + + + ",
"% w l V I $.*.s.f.f.f.f.s.O.N w + % w. XOX_.C.A.n.N.@ r.* 7 n n m c n n a = 8 V h : t ) <.( > > + + + + + * 0 e h w > % + + + + ",
"% w l V I $.*.s.f.f.f.f.s.O.N w + * @ w.%X$Xj.V.N.B.t <.& @ : ; = ; : > : h V K 7 #.g 0 w g e > + + + + + * 0 w h w > % + + + + ",
"% w l V I $.*.s.f.f.f.f.s.O.N w + * 6 * r.XX!.m.B.z ,.* ; @ * G O.P O & 8 c V K 7 h h n K M h > + + + + % * 0 w h w > % + + + + ",
"% w l V I $.*.s.f.f.f.f.s.O.N w + * 0 e 3 w.!.M.s t # a h & & z N j > & c N V F V n n L K M h > + + + + + * 0 w h w 6 % + + + + ",
"% w l V I $.*.s.f.f.f.f.s.O.N w + * 0 w j 6 :.s ,.# h z w ; & e N 7 ; 8 M V V F G K L L K M h > + + + + + * 0 w h w 6 * + + + + ",
"% w l V I $.*.s.f.f.f.f.s.O.N w + * 0 w j c h ; t h k h 0 a 7 c N h j j j F F F N H L L K M h > + + + + % * 0 w h w > % + + + + ",
"% w l V I $.*.s.f.f.f.f.s.O.N w + * 0 w j c V V c k k k j z c M N V V H F F F F F F L L K M h > + + + + % * 0 w h w > % + + + + ",
"% w l V I $.*.s.f.f.f.f.s.O.N w + * 0 w j c V K L V n k j c c M N F F V F V F V F L L L K M h > + + + + % > w w h w > % + + + + ",
"% w l V I $.*.s.f.f.f.f.s.O.N w + * 0 w j c V K L L L L V c l j j c n V M V V V L L L L K M h > + + + + % > w w h w > % + + + + ",
"% w l V I $.*.s.f.f.f.f.s.O.N w % > 0 w j c V K L L L L K M h > % 6 e h c c V F L L L L K M h > + + + + + * w w h w > % + + + + ",
"% w l V I $.*.s.f.f.f.f.s.O.N w % > 0 w j c V K L L L L K M h > + * 0 w j c V F L L L L K M h > + + + + + * 0 w h w > % + + + + ",
"% w l V L O.*.-.s.s.s.s.-.X.v 0 % * 0 e h c M V K K K K V c h > + * 0 e h c M V K K K K V c h > + + + + + * 0 e h w > % + + + + ",
"% > w l M V H X.O.O.O.O.X.N j 1 + * > 0 e h l c M M M M c j w * + * > 0 e h l c M M M M c j w * + + + + + * > 0 w > * % + + + + ",
"+ * 0 w j j c v N N N N v j w * + % * > > 0 w w h h h h h w > % + % * > > 0 w w h h h h h w > % + + + + + % * > > * % % + + + + ",
"+ % * * > 1 0 0 w w w w 0 1 * % + + % % % * * > > > > > > * % + + + % % % * * > > > > > > * % + + + + + + + % % % % % + + + + + ",
"+ + + + + + + + + + + + + + + + + + + + + + + + + + + + + + + + + + + + + + + + + + + + + + + + + + + + + + + + + + + + + + + + ",
"+ + + + + + + + + + + + + + + + + + + + + + + + + + + + + + + + + + + + + + + + + + + + + + + + + + + + + + + + + + + + + + + + ",
"+ + + + + + + + + + + + + + + + + + + + + + + + + + + + + + + + + + + + + + + + + + + + + + + + + + + + + + + + + + + + + + + + ",
"+ + + + + + + + + + + + + + + + + + + + + + + + + + + + + + + + + + + + + + + + + + + + + + + + + + + + + + + + + + + + + + + + "
};
