/* XPM */
static char *_b85588614da4902968c22b85f79f765uQMdiP2u6aloGcVv[] = {
/* columns rows colors chars-per-pixel */
"64 64 33 1 ",
"  c #3A4466",
". c #3C4667",
"X c #3C4768",
"o c #3D4769",
"O c #3F496A",
"+ c #404A6B",
"@ c #404B6D",
"# c #434E6F",
"$ c #454F70",
"% c #445071",
"& c #465172",
"* c #485374",
"= c #485575",
"- c #4A5676",
"; c #4B5778",
": c #4B5878",
"> c #4D597A",
", c #4E5B7C",
"< c #4F5D7D",
"1 c #525F7F",
"2 c #525F80",
"3 c #536181",
"4 c #556383",
"5 c #576485",
"6 c #586786",
"7 c #5A6888",
"8 c #5A6988",
"9 c #5C6B8A",
"0 c #5C6C8B",
"q c #5F6F8F",
"w c #5F6F90",
"e c #607090",
"r c #617192",
/* pixels */
"rrrrrrrrrrrrrrrrrrrrrrrrrrrrq5,&++++++++++++++++++++++++++++++++",
"rrrwqqqqqqqqqqqqqqqqqqqqqqqqq4>$OOOOOOOOOOOOOOOOOOOOOOOOOOO+++++",
"rrqqqqqqqqqqqqqqqqqqqqqqqqqq83;#oooooooooooooooooooooooooOO+++++",
"rwq099999999999999999999999981-#.........................oOO++++",
"rqq988888888888888888888888861-@                         oOO++++",
"rqq988888888888888888888888861-@                         oOO++++",
"rqq988888888888888888888888861-@                         oOO++++",
"rqq988888888888888888888888861-@                         oOO++++",
"rqq988888888888888888888888861-@                         oOO++++",
"rqq988888888888888888888888861-@                         oOO++++",
"rqq988888888888888888888888861-@                         oOO++++",
"rqq988888888888888888888888861-@                         oOO++++",
"rqq988888888888888888888888861-@                         oOO++++",
"rqq988888888888888888888888861-@                         oOO++++",
"rqq988888888888888888888888861-@                         oOO++++",
"rqq988888888888888888888888861-@                         oOO++++",
"rqq988888888888888888888888861-@                         oOO++++",
"rqq988888888888888888888888861-@                         oOO++++",
"rqq988888888888888888888888861-@                         oOO++++",
"rqq988888888888888888888888861-@                         oOO++++",
"rqq988888888888888888888888861-@                         oOO++++",
"rqq988888888888888888888888861-@                         oOO++++",
"rqq988888888888888888888888861-@                         oOO++++",
"rqq988888888888888888888888861-@                         oOO++++",
"rqq988888888888888888888888861-@                         oOO++++",
"rqq988888888888888888888888861-@                         oOO++++",
"rqq988888888888888888888888861-@                         oOO++++",
"rqq988888888888888888888888861-@                         oOO++++",
"qq886666666666566666656666665<-#oooooooooooooooooooooooooO+@####",
"543111111111111111111111111<<:-&&&&&&&&&&&&&&&&&&&&&&&&&&&*-;;;;",
",>;----------------------------::::>>>>>>>>>:::>>>>>>>>>>,123333",
"&$##@@@@@@O@@@@@@@@@@@@@@O@@#&:133344433444433344433444445688888",
"+Oo.                        o&>48888888888888888888888888qqrrrrr",
"+Oo.                        o&>48888888888888888888888888qqrrrrr",
"+Oo.                        o&>38888888888888888888888888qqrrrrr",
"+Oo.                        o&>38888888888888888888888888qqrrrrr",
"+Oo.                        o&>48888888888888888888888888qqrrrrr",
"+Oo.                        o&>488888888888888888888888889qrrrrr",
"+Oo.                        o&>48888888888888888888888888qqrrrrr",
"+Oo.                        o&>48888888888888888888888888qqrrrrr",
"+Oo.                        o&:38888888888888888888888888qqrrrrr",
"+Oo.                        o&:38888888888888888888888888qqrrrrr",
"+Oo.                        o&:38888888888888888888888888qqrrrrr",
"+Oo.                        o&>48888888888888888888888888qqrrrrr",
"+Oo.                        o&>48888888888888888888888888qqrrrrr",
"+Oo.                        o&>48888888888888888888888888qqrrrrr",
"+Oo.                        o&>388888888888888888888888889qrrrrr",
"+Oo.                        o&>38888888888888888888888888qqrrrrr",
"+Oo.                        o&>488888888888888888888888889qrrrrr",
"+Oo.                        o&>48888888888888888888888888qqrrrrr",
"+Oo.                        o&>488888888888888888888888889qrrrrr",
"+Oo.                        o&>48888888888888888888888888qqrrrrr",
"+Oo.                        o&>48888888888888888888888888qqrrrrr",
"+Oo.                        o&>48888888888888888888888888qqrrrrr",
"+Oo.                        o&>48888888888888888888888888qqrrrrr",
"+Oo.                        o&>48888888888888888888888888qqrrrrr",
"+Oo.                        o&>48888888888888888888888888qqrrrrr",
"+OOoooooooooooooooooooooooooO&,5qqqqqqqqqqqqqqqqqqqqqqqqqqqrrrrr",
"+OOOOOOOOOOOOOOOOOOOOOOOOOOO+*16qqqqqqqqqqqqqqqqqqqqqqqqqqrrrrrr",
"+++OOOOOOOOOOOOOOOOOOOOOOOOO@-28rrrrrrrrrrrrrrrrrrrrrrrrrrrrrrrr",
"++++++++++++++++++++++++++++#;38rrrrrrrrrrrrrrrrrrrrrrrrrrrrrrrr",
"++++++++++++++++++++++++++++#;38rrrrrrrrrrrrrrrrrrrrrrrrrrrrrrrr",
"++++++++++++++++++++++++++++#;38rrrrrrrrrrrrrrrrrrrrrrrrrrrrrrrr",
"++++++++++++++++++++++++++++#;38rrrrrrrrrrrrrrrrrrrrrrrrrrrrrrrr"
};
