/* XPM */
static char *_963e66be3f04b3da4bb068df97ac675ywi3pysLgxB43Eg1[] = {
/* columns rows colors chars-per-pixel */
"64 64 149 2 ",
"   c #161C2E",
".  c #1F263B",
"X  c #1F263C",
"o  c #21283E",
"O  c #36343D",
"+  c #212940",
"@  c #242B40",
"#  c #252D43",
"$  c #272F45",
"%  c #272F48",
"&  c #203749",
"*  c #28304A",
"=  c #2C354D",
"-  c #2B3552",
";  c #2C3450",
":  c #2F3852",
">  c #303951",
",  c #313A57",
"<  c #343D55",
"1  c #313A58",
"2  c #333D5A",
"3  c #353F5F",
"4  c #27424E",
"5  c #2B435A",
"6  c #364058",
"7  c #37415A",
"8  c #38435B",
"9  c #38425F",
"0  c #364263",
"q  c #3A4466",
"w  c #3C4667",
"e  c #3E4965",
"r  c #3D4769",
"t  c #3F496A",
"y  c #2A5163",
"u  c #35506C",
"i  c #315C68",
"p  c #355E75",
"a  c #38686D",
"s  c #346C7E",
"d  c #464243",
"f  c #4C4D4D",
"g  c #574C4D",
"h  c #505D5E",
"j  c #665A53",
"k  c #6C665D",
"l  c #77635C",
"z  c #766959",
"x  c #404C66",
"c  c #404A6B",
"v  c #424E6A",
"b  c #404B6D",
"n  c #434E6F",
"m  c #44506C",
"M  c #505562",
"N  c #454F70",
"B  c #404E75",
"V  c #465172",
"C  c #485570",
"Z  c #495672",
"A  c #485374",
"S  c #4A5676",
"D  c #4B5778",
"F  c #405C7E",
"G  c #4D597A",
"H  c #4E5B7C",
"J  c #515F7C",
"K  c #525F7F",
"L  c #5A7778",
"P  c #61606D",
"I  c #7C7563",
"U  c #867262",
"Y  c #837F6D",
"T  c #8C7E6C",
"R  c #977B6B",
"E  c #82816D",
"W  c #968068",
"Q  c #908C7C",
"!  c #A58F6E",
"~  c #A78A71",
"^  c #AB9B78",
"/  c #AC9A78",
"(  c #AE997C",
")  c #B69877",
"_  c #C6A77D",
"`  c #3F6A87",
"'  c #3B7783",
"]  c #3F788F",
"[  c #525F80",
"{  c #536181",
"}  c #556383",
"|  c #576485",
" . c #586786",
".. c #5A6988",
"X. c #5C6B8A",
"o. c #5C6C8B",
"O. c #5F6F8F",
"+. c #5F6F90",
"@. c #607090",
"#. c #617192",
"$. c #3E8698",
"%. c #428288",
"&. c #498D8D",
"*. c #54838D",
"=. c #4D8F99",
"-. c #45919D",
";. c #649293",
":. c #4C9DA2",
">. c #53A8A7",
",. c #5AB3AC",
"<. c #71A9A2",
"1. c #878682",
"2. c #8A9E8E",
"3. c #8B8E97",
"4. c #91A993",
"5. c #97B59D",
"6. c #AFA988",
"7. c #B2A582",
"8. c #B0A18D",
"9. c #B7B48D",
"0. c #B9B08C",
"q. c #B6AC97",
"w. c #B5B693",
"e. c #959AA8",
"r. c #BAB4AC",
"t. c #B5B2B8",
"y. c #D5B583",
"u. c #9DC1A7",
"i. c #A4CDAC",
"p. c #DBC18D",
"a. c #DCC08D",
"s. c #D8CB9C",
"d. c #E2CB97",
"f. c #E1CE98",
"g. c #E0C8A2",
"h. c #E9D6A1",
"j. c #E7DAA2",
"k. c #E6D3AC",
"l. c #EDDEB6",
"z. c #EFE1AB",
"x. c #EDE6AC",
"c. c #C5C6CB",
"v. c #EADAC1",
"b. c #F3E9C0",
"n. c #F2ECC1",
"m. c #F7F0D5",
"M. c #F5EDE0",
"N. c #FBF8EA",
"B. c white",
/* pixels */
"#.#.#.#.#.#.#.#.#.#.#.#.#.#.#.#.#.#.#.#.#.#.#.#.#.#.#.#.O.| H V c c c c c c c c c c c c c c c c c c c c c c c c c c c c c c c c ",
"#.#.#.+.O.O.O.O.O.O.O.O.O.O.O.O.O.O.O.O.O.O.O.O.O.O.O.O.O.} G N t t t t t t t t t t t t t t t t t t t t t t t t t t t c c c c c ",
"#.#.O.O.O.O.O.O.O.O.O.O.O.O.O.O.O.O.O.O.O.O.O.O.O.O.O.O...{ D n r r r r r r r r r r r r r r r r r r r r r r r r r t t c c c c c ",
"#.+.O.o.X.X.X.X.X.X.X.X.X.X.X.X.X.X.X.X.X.X.X.X.X.X.X.X...K S n w w w w w w w w w w w w w w w w w w w w w w w w w r t t c c c c ",
"#.O.O.X................................................. .K S b q q q q q q q q q q q q q q q q q q q q q q q q q r t t c c c c ",
"#.O.O.X................................................. .K S b q q q q q q q q q q q q q q q q q q q q q q q q q r t t c c c c ",
"#.O.O.X.......................................8 & y & $ 7 K S b q q q q q q q q q q q q q q q q q q q q q q q q q r t t c c c c ",
"#.O.O.X...................................Z     & -.a a 4   : b q q q q q q q q q q q q q q q q q q q q q q q q q r t t c c c c ",
"#.O.O.X.................................Z   & s $.:.,.>.:.,.i & 1 q q q q q q q q q q q q q q q q q q q q q q q q r t t c c c c ",
"#.O.O.X...............................Z   + ] $.>.,.,.:.>.,.,.,.4 1 q q q q q q q q q q q q q q q q q q q q q q q r t t c c c c ",
"#.O.O.X...............................$   $.$.$.:.,.,.,.>.-.,.,.-.& 1 q q q q q q q q q q q q q q q q q q q q q q r t t c c c c ",
"#.O.O.X...............................  0 ` $.$.y a a ,.,.>.%.,.,.a X q q q q q q q q q q q q q q q q q q q q q q r t t c c c c ",
"#.O.O.X...............................  F ] s           &.,.>.& ,.>.& q q q q q q q q q q q q q q q q q q q q q q r t t c c c c ",
"#.O.O.X...............................  F $.] B B B +     %.,.%.4 ,.y * q q q q q q q q q q q q q q q q q q q q q r t t c c c c ",
"#.O.O.X...............................$ - F $.F B B B       -.>.  =.5 * q q q q q q q q q q q q q q q q q q q q q r t t c c c c ",
"#.O.O.X...............................Z   - B B B 0 + $ $   u ] u ] 0 * q q q q q q q q q q q q q q q q q q q q q r t t c c c c ",
"#.O.O.X.................................Z           $ .. .  y y & p   q q q q q q q q q q q q q q q q q q q q q q r t t c c c c ",
"#.O.O.X.....................................Z 8 8 Z Z 8 $   y - p & X 1 q q q q q q q q q q q q q q q q q q q q q r t t c c c c ",
"#.O.O.X...........................................$ O g g + 0   + d z   X q q q q q q q q q q q q q q q P y.q q q r t t c c c c ",
"#.O.O.X.........................................$   8.v.t.e.e.3.3.c.B.r.  X q q q q q q q q q q q q q P y.y.q q q r t t c c c c ",
"#.O.O.X.......................................8   g   d l.m.m.v.v.k.d.Y z   1 q q q q q q q q q q q P y.M.d q q q r t t c c c c ",
"#.O.O.X.......................................    R ) h.z.z.z.z.m.m.m.h.y.z * q q q q q q q q q q 1 y.M.N.  q q q r t t c c c c ",
"#.O.O.X.....................................Z   g R _ y.z.z.m.m.m.B.B.B.z.a.  q q q q q q q q q P   M.B.n.  q q q r t t c c c c ",
"#.O.O.X.....................................8   R R y.y.z.z.z.z.z.b.1.z h.z.z * q q q q q q q q ( 7.B.M.x.  q q q r t t c c c c ",
"#.O.O.X.....................................$   l ~ y.y.y.h.z.z.z.m.1.  y.m.Y   q q q q q q q 1 ! m.B.y.j.  q q q r t t c c c c ",
"#.O.O.X.....................................  g R ) y.y.y.y.d.h.m.B.3.  z d.7.d q q q q q q q X 3.m.g.f.^ X q q q r t t c c c c ",
"#.O.O.X.......................Z 8 Z ......Z   g R _ y.y.y.y.y.z.z.m.1.  d y.m.  1 q q q q q 1   n.j.y.p.  1 q q q r t t c c c c ",
"#.O.O.X.......................  d   Z ....8   g R _ y.y.y.y.y.z.z.N.M     z Y   * q q q q q X E x.p.y.z X q q q q r t t c c c c ",
"O.O..... . . . . . . . . . . .  d ! d 8  .7     O R ) y.z                       X r r r r 1   x.f.y.y.  2 r r r r t c b n n n n ",
"| } { K K K K K K K K K K K K     d y.d # v     R R y.y.a.z.Y f           d q.Y   V V V V o E 9.z y.z o V V V V V V A S D D D D ",
"H G D S S S S S S S S S S S S   s & d y.d       g ~ ) ) y.y.d.z.z.m.c.    ! h.z.  G G G e   x.k ! y.  e G G G G G H K [ { { { { ",
"V N n n b b b b b b b b b b b   $.$.s h W U O     l R ) y.y.y.h.z.b.N.  d g.N.z.  } } } # E s.O y.z $ } } } } } } |  ...........",
"c t r w q q q q q q q q q q q   $.$.$.*.Q _ y.! z   g j y.y.y.a.z.z.N.  z h.z./     $ Z   f.T z y.  Z ............O.O.#.#.#.#.#.",
"c t r w q q q q q q q q q q q   $.$.$.$.y.z   f I j.x.  z y.y.y.z.z.z.3.k.z.z.f   ,.%.  z !   y.z $ ..............O.O.#.#.#.#.#.",
"c t r w q q q q q q q q q q q   $.$.:.-.y.y.y.! d   y.    z ! y.z.z.b.m.b.d./   ' & '   y.d g y.  Z ..............O.O.#.#.#.#.#.",
"c t r w q q q q q q q q q q q   $.$.-.>.x.j.y.y.y.  f.        d 0.z.b.m.z.7.+   ,.'   z !   R g $ ................O.O.#.#.#.#.#.",
"c t r w q q q q q q q q q q q   $.$.$.>.i.f.p.y.y.  y.  + +       d I z.Y   B + ' -.s     g R     Z ..............O.O.#.#.#.#.#.",
"c t r w q q q q q q q q q q q   6.;.$.-.5.f.x.y.y.g y.  5 F B - +         0 ` B   y $.] -     - 5 & Z ............X.O.#.#.#.#.#.",
"c t r w q q q q q q q q q q q   y.y.w.<.4.y.y.y.y.l y.  - $.] F B 0 +   0 ` ` -   g   y F B -   - & 8 ............O.O.#.#.#.#.#.",
"c t r w q q q q q q q q q q q   y.y.j.x.5.6.y.y.y.R y.  - ] $.$.] F B B F ] 0   g R ) d   - 0 - + $ ..............O.O.#.#.#.#.#.",
"c t r w q q q q q q q q q q q   z y.p.j.u.:.;.6.y.g y.  5 $.$.$.$.$.` ` ] p     g ) y.y.j     -   Z ..............O.O.#.#.#.#.#.",
"c t r w q q q q q q q q q q q * d y.y.p.5.,.-.:.;.  _   - B ` $.$.$.$.$.p       O ~ y.y.y.  $ 8 8 ................O.O.#.#.#.#.#.",
"c t r w q q q q q q q q q q q q   ! y.y.6.-.-.$.$.  ~   + - - - - - - +     Z $   O g z d   ......................O.O.#.#.#.#.#.",
"c t r w q q q q q q q q q q q q 1   ! y.y.$.$.$.$.O l                   8 ....  B +     $ Z ......................O.O.#.#.#.#.#.",
"c t r w q q q q q q q q q q q q q 1   ! y.2.$.$.& l         e m x     $ ......  + + 8 ............................O.O.#.#.#.#.#.",
"c t r w q q q q q q q q q q q q q q 1   ! 2.$.& O   + +     * < #     = 7 7 Z x 8 8 ..............................O.O.#.#.#.#.#.",
"c t r w q q q q q q q q q q q q q q q 1   L & l   + % .     @ < .   . = 7 7 7 7 e ................................X.O.#.#.#.#.#.",
"c t r w q q q q q q q q q q q q q q q q 1     O + % + . X o * < # # # # 7 7 7 7 7 Z ..............................O.O.#.#.#.#.#.",
"c t r w q q q q q q q q q q q q q q q q q 1   + % % % % * = > < 7 7 7 7 7 7 7 7 7 Z ..............................X.O.#.#.#.#.#.",
"c t r w q q q q q q q q q q q q q q q q q q 3 % % % % % * = > < 7 7 7 7 7 7 7 7 e ................................O.O.#.#.#.#.#.",
"c t r w q q q q q q q q q q q q q q q q q q q q , ; % % * = > < 7 7 7 7 7 7 Z K ..................................X.O.#.#.#.#.#.",
"c t r w q q q q q q q q q q q q q q q q q q q q q q q q 1 9 e m Z Z Z K ..........................................O.O.#.#.#.#.#.",
"c t r w q q q q q q q q q q q q q q q q q q q q q q q q r V G } ..................................................O.O.#.#.#.#.#.",
"c t r w q q q q q q q q q q q q q q q q q q q q q q q q r V G } ..................................................O.O.#.#.#.#.#.",
"c t r w q q q q q q q q q q q q q q q q q q q q q q q q r V G } ..................................................O.O.#.#.#.#.#.",
"c t r w q q q q q q q q q q q q q q q q q q q q q q q q r V G } ..................................................O.O.#.#.#.#.#.",
"c t r w q q q q q q q q q q q q q q q q q q q q q q q q r V G } ..................................................O.O.#.#.#.#.#.",
"c t t r r r r r r r r r r r r r r r r r r r r r r r r r t V H | O.O.O.O.O.O.O.O.O.O.O.O.O.O.O.O.O.O.O.O.O.O.O.O.O.O.O.#.#.#.#.#.",
"c t t t t t t t t t t t t t t t t t t t t t t t t t t t c A K  .O.O.O.O.O.O.O.O.O.O.O.O.O.O.O.O.O.O.O.O.O.O.O.O.O.O.#.#.#.#.#.#.",
"c c c t t t t t t t t t t t t t t t t t t t t t t t t t b S [ ..#.#.#.#.#.#.#.#.#.#.#.#.#.#.#.#.#.#.#.#.#.#.#.#.#.#.#.#.#.#.#.#.",
"c c c c c c c c c c c c c c c c c c c c c c c c c c c c n D { ..#.#.#.#.#.#.#.#.#.#.#.#.#.#.#.#.#.#.#.#.#.#.#.#.#.#.#.#.#.#.#.#.",
"c c c c c c c c c c c c c c c c c c c c c c c c c c c c n D { ..#.#.#.#.#.#.#.#.#.#.#.#.#.#.#.#.#.#.#.#.#.#.#.#.#.#.#.#.#.#.#.#.",
"c c c c c c c c c c c c c c c c c c c c c c c c c c c c n D { ..#.#.#.#.#.#.#.#.#.#.#.#.#.#.#.#.#.#.#.#.#.#.#.#.#.#.#.#.#.#.#.#.",
"c c c c c c c c c c c c c c c c c c c c c c c c c c c c n D { ..#.#.#.#.#.#.#.#.#.#.#.#.#.#.#.#.#.#.#.#.#.#.#.#.#.#.#.#.#.#.#.#."
};
