/* XPM */
static char *a0ab447f3a69430db2d71bba0472614dKJ8QGe1mYTJ6zqIO[] = {
/* columns rows colors chars-per-pixel */
"64 64 77 1 ",
"  c #272B44",
". c #292F48",
"X c #2C324B",
"o c #2F3551",
"O c #303753",
"+ c #333A56",
"@ c #353D59",
"# c #383F58",
"$ c #37405F",
"% c #39425E",
"& c #374061",
"* c #3A4465",
"= c #3F4965",
"- c #3C4768",
"; c #3F496A",
": c #404B67",
"> c #424D6B",
", c #46526F",
"< c #48536E",
"1 c #434F70",
"2 c #465172",
"3 c #495575",
"4 c #4D5876",
"5 c #4B5778",
"6 c #4E5B7A",
"7 c #505D7E",
"8 c #53607F",
"9 c #566483",
"0 c #586584",
"q c #5A6887",
"w c #5A6988",
"e c #606F8D",
"r c #62718E",
"t c #657391",
"y c #697794",
"u c #6A7996",
"i c #6E7E9A",
"p c #717F9B",
"a c #73829E",
"s c #7785A1",
"d c #7887A2",
"f c #7D8BA6",
"g c #7E8EA9",
"h c #808DA7",
"j c #818EA8",
"k c #8292AC",
"l c #8796B0",
"z c #8A97B1",
"x c #8999B2",
"c c #8C99B1",
"v c #8B9BB4",
"b c #8E9DB5",
"n c #919FB7",
"m c #93A2BA",
"M c #94A4BB",
"N c #96A5BD",
"B c #99A7BF",
"V c #99A8BF",
"C c #9DABC1",
"Z c #9EACC3",
"A c #A0ACC2",
"S c #A0AEC4",
"D c #A2B0C5",
"F c #A4B2C6",
"G c #A7B3C8",
"H c #A7B4C9",
"J c #AAB7CB",
"K c #AAB7CC",
"L c #ACB8CC",
"P c #AFBCD0",
"I c #B2BED1",
"U c #B5C0D3",
"Y c #B7C2D4",
"T c #B9C5D7",
"R c #BBC6D8",
"E c #BCC7D9",
"W c #BEC9DA",
/* pixels */
"wwwwwtidgxvvvvvvvvvvvvvvvvvvvvvvvvvvvvvvvvvvvvvvvvvvvvvvvvvvvvbN",
"wwrtuidfkxvvvvvvvvvvvvvvvvvvvvvvvvvvvvvvvvvvvvvvvvvvvvvvvvvvvvbN",
"wryiadfkkxvvvvvvvvvvvvvvvvvvvvvvvvvvvvvvvvvvvvvvvvvvvvvvvvvvvvbN",
"wtiafkkkxvvvvvvvvvvvvvvvvvvvvvvvvvvvvvvvvvvvvvvvvvvvvvvvvvvvvvbN",
"wyafkxxxvvvvvvvvvvvvvvvvvvvvvvvvvvvvvvvvvvvvvvvvvvvvvvvvvvvvvvbN",
"wudkbmmbbbvvvvvvvvvvvvvvvvvvvvvvvvvvvvvvvvvvvvvvvvvvvvvvvvvvvvbN",
"wifxBCBMmbvvvvvvvvvvvvvvvvvvvvvvvvvvvvvvvvvvvvvvvvvvvvvvvvvvvvbN",
"wpknSHSVmbvvvvvvvvvvvvvvvvvvvvvvvvvvvvvvvvvvvvvvvvvvvvvvvvvvvvbN",
"wakBLPHZNbvvvvvvvvvvvvvvvvvvvvvvvvvvvvvvvvvvvvvvvvvvvvvvvvvvvvbN",
"edcAUTLFVbbbbbbbbbbbbbbbbbbbbbbbbbbbbbbbbbbbbbbbbbbbbbbbbbbbbbbN",
"edcAYRIJSBNNNNNNNNNNNNNNNNNNNNNNNNNNNNNNNNNNNNNNNNNNNNNNNNNNNNNV",
"rscAYWYPJDDDDDDDDDDDDDDDDDDDDDDDDDDDDDDDDDDDDDDDDDDDDDDDDDDDDDSZ",
"edcAYWTYILLLLLLLLLLLLLLLLLLLLLLLLLLLLLLLLLLLLLLLLLLLLLLLLLLLLLKD",
"edcAYWWRTYYYYYYYYYYYYYYYYYYYYYYYYYYYYYYYYYYYYYYYYYYYYYYYYYYYYYIG",
"eazCIEEEEEEEEEEEEEEEEEEEEEEEEEEEEEEEEEEEEEEEEEEEEEEEEEEEEEEEEETJ",
"wphbAGGGGGGGGGGGGGGGGGGGGGGGGGGGGGGGGGGGGGGGGGGGGGGGGGGGGGGGGGFM",
"wuajcnnnnnnnnnnnnnnnnnnnnnnnnnnnnnnnnnnnnnnnnnnnnnnnnnnnnnnnnnnk",
"wtuadffffffffffffffffffffffffffffffffffffffffffffffffffffffffffa",
"wwrttyyyyyyyyyyyyyyyyyyyyyyyyyyyyyyyyyyyyyyyyyyyyyyyyyyyyyyyyyyt",
"qqqwwwwwwwwwwwwwwwwwwwwwwwwwwwwwwwwwwwwwwwwwwwwwwwwwwwwwwwwwwwww",
"7999qwwwwwwwwwwwwwwwwwwwwwwwwwwwwwwwwwwwwwwwwwwwwwwwwwwwwwwwwwwq",
"5689qwwwwwwwwwwwwwwwwwwwwwwwwwwwwwwwwwwwwwwwwwwwwwwwwwwwwwwwwww9",
"2569qwwwwwwwwwwwwwwwwwwwwwwwwwwwwwwwwwwwwwwwwwwwwwwwwwwwwwwwwwq9",
";2579wwwwwwwwwwwwwwwwwwwwwwwwwwwwwwwwwwwwwwwwwwwwwwwwwwwwwwwwwq9",
"->55999999999999999999999999999999999999999999999999999999999999",
"->25567777777777777777777777777777777777777777777777777777777777",
"-;>2555555555555555555555555555555555555555555555555555555555555",
"--;>>11111111111111111111111111111111111111111111111111111111125",
"--------------------------------------------------------------;5",
"-;>>2333333333333333333322>>>>>>22333333333333333333333333333357",
"->559000000000000000000097552555790000000000000000000000000000qw",
"-27qrtttttttttttttttttttrwq9579qetttttttttttttttttttttttttttttty",
";50tasssssssssssssssssssautw9qwtidssssssssssssssssssssssssssddda",
";7epkxxxxxxxxxxxxxxxxxxxkfaywwuafzxxxxxxxxxxxxxxxxxxxxxxxxxxxxlg",
";7rpkxxkkkkkkkkkkkkkkkkkgaur9wtafxxxkkkkkkkkkkkkkkkkkkkkkkkkkkkf",
";7rakxkkfdssssssssssssssaurq79rifxxkkfdsssssssssssssssssssssssda",
";7rakxkfdpiiiiiiiiiiiiiiurq957wudxlkfaiiiiiiiiiiiiiiiiiiiiiiiiiu",
";7raklgdittttttttttttttteq75>5qydxkfautttttttttttttttttttttttttr",
";7epkkfpywwwwwwwwwwwwwwwq751->8rakksitwwwwwwwwwwwwwwwwwwwwwwwwww",
"&30ysfautwwwwwwwwwwwwwww963>&;4quffaurwwwwwwwwwwwwwwwwwwwwwwwwwq",
"@>7eiaiyrwwwwwwwwwwwwwww952=@*38raautewwwwwwwwwwwwwwwwwwwwwwwwq9",
"+=50tuttwwwwwwwwwwwwwwww95>*+@:4quutrwwwwwwwwwwwwwwwwwwwwwwwwwq9",
"X%>6qewwwwwwwwwwwwwwwwww94:%XO*,7wewwwwwwwwwwwwwwwwwwwwwwwwwwwq7",
".+=37999999999999999999973=@.X@=39999999999999999999999999999994",
".O%:344444444444444444443:%O.X+%:544444444444444444444444444445,",
".X+%=:::::::::::::::::::=%@o.Xo@%::::::::::::::::::::::::::::::>",
" XXO@@@@@@@@@@@@@@@@@@@@@OXX .XX+@@@@@@@@@@@@@@@@@@@@@@@@@@@@@@%",
"  ..XXXXXXXXXXXXXXXXXXXXX..    ..XXXXXXXXXXXXXXXXXXXXXXXXXXXXXX+",
" ..XXXXXXXXXXXXXXXXXXXXXXXXXXXXXXXXXXXXXXXXXXX....XXXXXXXXXXXXX@",
" XXO@@@@@@@@@@@@@@@@@@@@@@@@@@@@@@@@@@@@@@@@++OXoo++@@@@@@@@@@@*",
".X+%=:::::::::::::::::::::=:::::::::::::::=:=%@++@%=::::::::::::",
".O%:3444444444444444444444444444444444444445,:=$$=>,544444444445",
".@=38qqq99999999999999999999999999999999999965>-=>569qq999999997",
".@:39wqq99999999999999999999999999999999999955>-->57qqqq99999997",
".@:39q999777777667777777777777776777777777753>=@%;26qq9977777665",
".@:59q97555555553555555555555555355555555552>=$+@=>59q9755555352",
".@:399855>>>>>>>>>>>>>>>>>>>>>>>>>>>>>>>>>>>=$+XO%:499752>>>>>>>",
".@:399751----------------------------------*@+o.X@=59975>-------",
".@:39975>-----**------**-*----**------**-*-*@+o.X@=59975>------&",
".@:59975>---*--*----****-----***----****---*@+o.X@=599751---*-*&",
".@:59975>-----**--****-***----**--****-*****@+X.X@=599751--****@",
".@:59975>-----**--**----**-*--**--**----**-*@+X.X@=59975>--*-**@",
".+=38952>*&&&&&&&&&&*&&&&&&&*&&&&&&&*&&&&&&&@OX.X@=38852>*&&&&&+",
" X#:<3>=&@@@@@@@++++@@@@++++@@@@++++@@@@+@@+oX.  X@:<<>=%@@@@@+X"
};
