/* XPM */
static char *_7127dff691c4ff9aee69e2820a8df54OmLLqjVe42Cy0cVu[] = {
/* columns rows colors chars-per-pixel */
"128 128 55 1 ",
"  c #161C2E",
". c #272F48",
"X c #2F3854",
"o c #323B57",
"O c #343E5A",
"+ c #364157",
"@ c #37415D",
"# c #3A4560",
"$ c #3D4762",
"% c #3A4466",
"& c #3B4567",
"* c #3C4667",
"= c #3F4B66",
"- c #3D4769",
"; c #3F496B",
": c #7D5D4A",
"> c #404A6B",
", c #424E69",
"< c #404B6C",
"1 c #434E6F",
"2 c #45516B",
"3 c #444F70",
"4 c #475273",
"5 c #475374",
"6 c #485475",
"7 c #4A5777",
"8 c #4B5778",
"9 c #4C5879",
"0 c #4E5B7B",
"q c #4E5B7C",
"w c #4F5C7D",
"e c #515E7F",
"r c #515F7F",
"t c #947A48",
"y c #AC7A58",
"u c #A7AE3D",
"i c #CEA554",
"p c #E9F044",
"a c #526080",
"s c #546182",
"d c #556383",
"f c #576586",
"g c #586687",
"h c #596788",
"j c #5A6988",
"k c #5B6A89",
"l c #5C6B8A",
"z c #5C6C8B",
"x c #5C6B8C",
"c c #5F6E8F",
"v c #5F6F90",
"b c #607090",
"n c #617192",
"m c #B6B8BD",
"M c white",
/* pixels */
"nnnnnnnnnnnnnnnnnnnnnnnnnnnnnnnnnnnnnnnnnnnnnnnnnnnnnnnnnchse963>>>>>>>>>>>>>>>>>>>>>>>>>>>>>>>>>>>>>>>>>>>>>>>>>>>>>>>>>>>>>>>>",
"nnnnnnnnnnnnnnnnnnnnnnnnnnnnnnnnnnnnnnnnnnnnnnnnnnnnnnnnnxgse951;;;;;;;;;;;;;;;;;;;;;;;;;;;;;;;;;;;;;;;;;;;;;;;;;;;>>>>>>>>>>>>>",
"nnnnnnnvvvvvvvvvvvvvvvvvvvvvvvvvvvvvvvvvvvvvvvvvvvvvvvvvvkfaw841;;;;;;;;;;;;;;;;;;;;;;;;;;;;;;;;;;;;;;;;;;;;;;;;;;;;;;>>>>>>>>>>",
"nnnnncccccccccccccccccccccccccccccccccccccccccccccccccccckfaq641;;;;;;;;;;;;;;;;;;;;;;;;;;;;;;;;;;;;;;;;;;;;;;;;;;;;;;;>>>>>>>>>",
"nnnnvcccccccccccccccccccccccccccccccccccccccccccccccccccckfe9641--------------------------------------------------;;;;;>>>>>>>>>",
"nnnvccccccczccccczcccccccccccczlccczccccczcccccccccccczlcgse964<----------------------**----------------------****-;;;;>>>>>>>>>",
"nnncccczllllllllkkllllklllllllllllllllllkklllllllllllllllgse963<******************************&*******************--;;;;>>>>>>>>",
"nnvccczlkkkkkkkkkkkkkkkkkkkkkkkkkkkkkkkkkkkkkkkkkkkkkkkkkfaw851;&&&&&&&&&&&&&&&&&&&&&&&&&&&&&&&&&&&&&&&&&&&&&&&&&&---;;;>>>>>>>>",
"nnvccckkkkkkkkkkkkkkkkkkkkkkkkkkkkkkkkkkkkkkkkkkkkkkkkkkkfa9641;&&&&&&&&&&&&&&&&&&&&&&&&&&&&&&&&&&&&&&&&&&&&&&&&&&*--;;;>>>>>>>>",
"nnvcczlkkkkkkkkkkkkkkkkkkkkkkkkkkkkkkkkkkkkkkkkkkkkkkkkkkfa9641;&&&&&&&&&&&&&&&&&&&&&&&&&&&&&&&&&&&&&&&&&&&&&&&&&&*--;;;>>>>>>>>",
"nnvccclkkkkkkkkkkkkkkkkkkkkkkkkkkkkkkkkkkkkkkkkkkkkkkkkkkfa9641;&&&&&&&&&&&&&&&&&&&&&&&&&&&&&&&&&&&&&&&&&&&&&&&&&&*--;;;>>>>>>>>",
"nnvccclkkkkkkkkkkkkkkkkkkkkkkkkkkkkkkkkkkkkkkkkkkkkkkkkkkfa9641;&&&&&&&&&&&&&&&&&&&&&&&&&&&&&&&&&&&&&&&&&&&&&&&&&&*--;;;>>>>>>>>",
"nnvccclkkkkkkkkkkkkkkkkkkkkkkkkkkkkkkkkkkkkkkkkkkkkkkkkkkfa9641;&&&&&&&&&&&&&&&&&&&&&&&&&&&&&&&&&&&&&&&&&&&&&&&&&&*--;;;>>>>>>>>",
"nnvccclkkkkkkkkkkkkkkkkkkkkkkkkkkkkkkkkkkkkkkkkkkkkkkkkkkfa9641;&&&&&&&&&&&&&&&&&&&&&&&&&&&&&&&&&&&&&&&&&&&&&&&&&&*--;;;>>>>>>>>",
"nnvccclkkkkkkkkkkkkkkkkkkkkkkkkkkkkkkkkkkkkkkkkkkkkkkkkkkfa9641;&&&&&&&&&&&&&&&&&&&&&&&&&&&&&&&&&&&&&&&&&&&&&&&&&&*--;;;>>>>>>>>",
"nnvccclkkkkkkkkkkkkkkkkkkkkkkkkkkkkkkkkkkkkkkkkkkkkkkkkkkfa9641;&&&&&&&&&&&&&&&&&&&&&&&&&&&&&&&&&&&&&&&&&&&&&&&&&&*--;;;>>>>>>>>",
"nnvccclkkkkkkkkkkkkkkkkkkkkkkkkkkkkkkkkkkkkkkkkkkkkkkkkkksa9641;&&&&&&&&&&&&&&&&&&&&&&&&&&&&&&&&&&&&&&&&&&&&&&&&&&*--;;;>>>>>>>>",
"nnvccclkkkkkkkkkkkkkkkkkkkkkkkkkkkkkkkkkkkkkkkkkkkkkkkkkkfa9641;&&&&&&&&&&&&&&&&&&&&&&&&&&&&&&&&&&&&&&&&&&&&&&&&&&*--;;;>>>>>>>>",
"nnvccclkkkkkkkkkkkkkkkkkkkkkkkkkkkkkkkkkkkkkkkkkkkkkkkkkkfa9641;&&&&&&&&&&&&&&&&&&&&&&&&&&&&&&&&&&&&&&&&&&&&&&&&&&*--;;;>>>>>>>>",
"nnvccclkkkkkkkkkkkkkkkkkkkkkkkkkkkkkkkkkkkkkkkkkkkkkkkkkkfa9641;&&&&&&&&&&&&&&&&&&&&&&&&&&&&&&&&&&&&&&&&&&&&&&&&&&*--;;;>>>>>>>>",
"nnvccclkkkkkkkkkkkkkkkkkkkkkkkkkkkkkkkkkkkkkkkkkkkkkkkkkkfa9641;&&&&&&&&&&&&&&&&&&&&&&&&&&&&&&&&&&&&&&&&&&&&&&&&&&**-;;;>>>>>>>>",
"nnvccclkkkkkkkkkkkkkkkkkkkkkkkkkkkkkkkkkkkkkkkkkkkkkkkkkkfa9641;&&&&&&&&&&&&&&&&&&&&&&&&&&&&&&&&&&&&&&&&&&&&&&&&&&**-;;;>>>>>>>>",
"nnvcczlkkkkkkkkkkkkkkkkkkkkkkkkkkkkkkkkkkkkkkkkkkkkkkkkkkfa9641;&&&&&&&&&&&&&&&&&&&&&&&&&&&&&&&&&&&&&&&&&&&&&&&&&&**-;;;>>>>>>>>",
"nnvccllkkkkkkkkkkkkkkkkkkkkkkkkkkkkkkkkkkkkkkkkkkkkkkkkkkfa9641;&&&&&&&&&&&&&&&&&&&&&&&&&&&&&&&&&&&&&&&&&&&&&&&&&&*--;;;>>>>>>>>",
"nnvccclkkkkkkkkkkkkkkkkkkkkkkkkkkkkkkkkkkkkkkkkkkkkkkkkkkfa9641;&&&&&&&&&&&&&&&&&&&&&&&&&&&&&&&&&&&&&&&&&&&&&&&&&&*--;;;>>>>>>>>",
"nnvccclkkkkkkkkkkkkkkkkkkkkkkkkkkkkkkkkkkkkkkkkkkkkkkkkkkfa9641;&&&&&&&&&&&&     &&&&&&&&&&&&&&&&&&&&&&&&&&&&&&&&&*--;;;>>>>>>>>",
"nnvccclkkkkkkkkkkkkkkkkkkkkkkkkkkkkkkkkkkkkkkkkkkkkkkkkkkfa9641;&&&&&&&&&&&&       &&&&&&&&&&&&&&&&&&&&&&&&&&&&&&&*--;;;>>>>>>>>",
"nnvcczlkkkkkkkkkkkkkkkkkkkkkkkkkkkkkkkkkkkkkkkkkkkkkkkkkkfa9641;&&&&&&&&&&&&  p     &&&&&&&&&&&&&&&&&&&&&&&&&&&&&&*--;;;>>>>>>>>",
"nnvccclkkkkkkkkkkkkkkkkkkkkkkkkkkkkkkkkkkkkkkkkkkkkkkkkkkfa9641;&&&&&&&&&&&&  pppp   &&&&&&&&&&&&&&&&&&&&&&&&&&&&&*--;;;>>>>>>>>",
"nnvccclkkkkkkkkkkkkkkkkkkkkkkkkkkkkkkkkkkkkkkkkkkkkkkkkkkfa9641;&&&&&&&&&&&&  pppppp  &&&&&&&&&&&&&&&&&&&&&&&&&&&&*--;;;>>>>>>>>",
"nnvccclkkkkkkkkkkkkkkkkkkkkkkkkkkkkkkkkkkkkkkkkkkkkkkkkkkfa9641;&&&&&&&&&&    piipppp  &&&&&&&&&&&&&&&&&&&&&&&&&&&*--;;;>>>>>>>>",
"nnvccclkkkkkkkkkkkkkkkkkkkkkkkkkkkkkkkkkkkkkkkkkkkkkkkkkkfa9641;&&&&&&&&&     piiippii  &&&&&&&&&&&&&&&&&&&&&&&&&&*--;;;>>>>>>>>",
"nnvccckkkkkkkkkkkkkkkkkkkkkkkkkkkkkkkkkkkkkkkkkkkkkkkkkkksa9641;&&&&&&&&&      iippiii   &&&&&&&&&&&&&&&&&&&&&&&&&*--;;;>>>>>>>>",
"nnvcczkkkkkkkkkkkkkkkkkkkkkkkkkkkkkkkkkkkkkkkkkkkkkkkkkkksa9641;&&&&&&&&   MMM   piiiii  &&&&&&&&&&&&&&&&&&&&&&&&&**-;;;>>>>>>>>",
"nnvccclkkkkkkkkkkkkkkkkkkkkkkkkkkkkkkkkkkkkkkkkkkkkkkkkkkfa9641;&          MMMM   ii     &&&&&&&&&&&&&&&&&&&&&&&&&*--;;;>>>>>>>>",
"nnvccclkkkkkkkkkkkkkkkkkkkkkkkkkkkkkkkkkkkkkkkkkkkkkkkkkkfa9641             MMMM       &&&&&&&&&&&&&&&&&&&&&&&&&&&*--;;;>>>>>>>>",
"nnvccclkkkkkkkkkkkkkkkkkkkkkkkkkkkkkkkkkkkkkkkkkkkkkkkkkkfa96      pppppp    MMMp    &&&&&&&&&&&&&&&&&&&&&&&&&&&&&*--;;;>>>>>>>>",
"nnvccclkkkkkkkkkkkkkkkkkkkkkkkkkkkkkkkkkkkkkkkkkkkkkkkkkkfa9     pppMMMMppp    ppp   &&&&&&&&&&&&&&&&&&&&&&&&&&&&&*--;;;>>>>>>>>",
"nnvccckkkkkkkkkkkkkkkkkkkkkkkkkkkkkkkkkkkkkkkkkkkkkkkkkkkfa9    pppMMMMMMMppi   pp   &&&&&&&&&&&&&&&&&&&&&&&&&&&&&*--;;;>>>>>>>>",
"nnvccclkkkkkkkkkkkkkkkkkkkkkkkkkkkkkkkkkkkkkkkkkkkkkkkkkkfa    ppppMMMMMMMpppi       &&&&&&&&&&&&&&&&&&&&&&&&&&&&&*--;;;>>>>>>>>",
"nnvccclkkkkkkkkkkkkkkkkkkkkkkkkkkkkkkkkkkkkkkkkkkkkkkkkkkfa    ppppMMMMMMMpppi         &&&&&&&&&&&&&&&&&&&&&&&&&&&*--;;;>>>>>>>>",
"nnvccclkkkkkkkkkkkkkkkkkkkkkkkkkkkkkkkkkkkkkkkkkkkkkkkkkkf   ppppppMMMyyMMpppii   p     &&&&&&&&&&&&&&&&&&&&&&&&&&*--;;;>>>>>>>>",
"nnvccclkkkkkkkkkkkkkkkkkkkkkkkkkkkkkkkkkkkkkkkkkkkkkkkkk     ppppppMMyyyMMppppii  pppp   &&&&&&&&&&&&&&&&&&&&&&&&&*--;;;>>>>>>>>",
"nnvccclkkkkkkkkkkkkkkkkkkkkkkkkkkkkkkkkkkkkkkkkkkkkk        ppp     yyyMMMppppii  pppppp  &&&&&&&&&&&&&&&&&&&&&&&&*--;;;>>>>>>>>",
"nnvccclkkkkkkkkkkkkkkkkkkkkkkkkkkkkkkkkkkkkkkkkkkkk       yyii       yyypppppp    piipppp  &&&&&&&&&&&&&&&&&&&&&&&**-;;;>>>>>>>>",
"nnvccclkkkkkkkkkkkkkkkkkkkkkkkkkkkkkkkkkkkkkkkkkkk     ppiiyi    ii  yyyppppp     piiippii  &&&&&&&&&&&&&&&&&&&&&&**-;;;>>>>>>>>",
"nnvcczlkkkkkkkkkkkkkkkkkkkkkkkkkkkkkkkkkkkkkkkkkk   pppppiiii   iiipppyyypppp      iippiii   &&&&&&&&&&&&&&&&&&&&&**-;;;>>>>>>>>",
"nnvccllkkkkkkkkkkkkkkkkkkkkkkkkkkkkkkkkkkkkkkkkk   pMMMMpppii    iippppppppp   MMM   piiiii  &&&&&&&&&&&&&&&&&&&&&*--;;;>>>>>>>>",
"nnvccclkkkkkkkkkkkkkkkkkkkkkkkkkkkkkkkkkkkkkkkk   ppMMMMpppii     iip          MMMM   ii     &&&&&&&&&&&&&&&&&&&&&*--;;;>>>>>>>>",
"nnvccclkkkkkkkkkkkkkkkkkkkkkkkkkkkkkkkkkkkkkkkk  ppMMMMMppppp                   MMMM       &&&&&&&&&&&&&&&&&&&&&&&*--;;;>>>>>>>>",
"nnvccclkkkkkkkkkkkkkkkkkkkkkkkkkkkkkkkkkkkkkkk   ppMMMMMpyypppp        pppppp    MMMp    &&&&&&&&&&&&&&&&&&&&&&&&&*--;;;>>>>>>>>",
"nnvcczlkkkkkkkkkkkkkkkkkkkkkkkkkkkkkkkkkkkkkkk   ppMMMpppyyypp       pppMMMMppp    ppp   &&&&&&&&&&&&&&&&&&&&&&&&&*--;;;>>>>>>>>",
"nnvccclkkkkkkkkkkkkkkkkkkkkkkkkkkkkkkkkkkkkkkk  ippppppppyyyy       pppMMMMMMMppi   pp   &&&&&&&&&&&&&&&&&&&&&&&&&*--;;;>>>>>>>>",
"nnvccclkkkkkkkkkkkkkkkkkkkkkkkkkkkkkkkkkkkkkkk  iippppppppyyy      ppppMMMMMMMpppi       &&&&&&&&&&&&&&&&&&&&&&&&&*--;;;>>>>>>>>",
"nnvccclkkkkkkkkkkkkkkkkkkkkkkkkkkkkkkkkkkkkkkk  iipppppppppyyyy    ppppMMMMMMMpppi      &&&&&&&&&&&&&&&&&&&&&&&&&&*--;;;>>>>>>>>",
"nnvccclkkkkkkkkkkkkkkkkkkkkkkkkkkkkkkkkkkkkkk   iipppppppppyyy   ppppppMMMyyMMpppii    &&&&&&&&&&&&&&&&&&&&&&&&&&&*--;;;>>>>>>>>",
"nnvccclkkkkkkkkkkkkkkkkkkkkkkkkkkkkkkkkkk       iippppppppyy     ppppppMMyyyMMppppiii  &&&&&&&&&&&&&&&&&&&&&&&&&&&*--;;;>>>>>>>>",
"cxkkkggfffffffffffffffffffffffffffffffff        iiippppp        ppp     yyyMMMppppiii   ;;;;;;;;;;;;;;;;;;;;;;;;;;<<111133333333",
"hgfffssaaaaaaeaaaaaaaaaaaaaaaaaaaaaaaea         iiiippp       yyii       yyyppppppiii   1111111111111111111111111134444566666666",
"ssaaeeew999999999999999999999999999999           iiiip     ppiiyi    ii  yyyppppppiii   4444444444444444444444444566668999999999",
"eewq999866666666666666666666666666666        pp  iiii   pppppiiii   iiipppyyypppppiiii  6     66666666666666666668999qweeeeeeeee",
"998666654444444444444444444444444444       pppM   ii   pMMMMpppii    iippppppppppiiiii  9       99999999999999999weeeaasssssssss",
"654444311111111111111111111111111111      pppMMM  i   ppMMMMpppii     iipppppppppiiiii  a  p     aaaaaaaaaaaaaaaaassfffghhhhhhhh",
"31111<<;;;;;;;;;;;;;;;;;;;;;;;;;;;;      ppppMMm     ppMMMMMppppp        pppppppiiiiiy  f  pppp   ffffffffffffffffggkkkxcccccccc",
">;;;--*&&&&&&&&&&&&&&&&&&&&&&&&&&&&      ppppMmmm    ppMMMMMpyypppp       iippppiiiyyy  k  pppppp  kkkkkkkkkkkkkkklcccvnnnnnnnnn",
">;;;--*&&&&&&&&&&&&&&&&&&&&&&&&&&&&    ppppppMmm::   ppMMMpppyyypp   pi   iiiiiiiiyyyy     piipppp  kkkkkkkkkkkkkklcccvnnnnnnnnn",
">;;;--*&&&&&&&&&&&&&&&&&&&&&&&&&&&     ppppppMm:::  ippppppppyyyy   ppii  iiyyyyyyyyyy     piiippii  kkkkkkkkkkkkklcccvnnnnnnnnn",
">;;;--*&&&&&&&&&&&&&&&&&&&&&&&        ppp     :::m  iippppppppyyy   ppp   iiiyyyyyyyy       iippiii   kkkkkkkkkkkklccccvnnnnnnnn",
">;;;--*&&&&&&&&&&&&&&&&&&&&&&       yyii       :::  iipppppppppyyyy       ppiiyyyyyy    MMM   piiiii  kkkkkkkkkkkklcccvnnnnnnnnn",
">;;;--*&&&&&&&&&&&&&&&&&&&&&     ppiiyi    ii  y::  iipppppppppyyyyyyy   ppppiiyyyy     MMMM   ii     kkkkkkkkkkkklcccvnnnnnnnnn",
">;;;--*&&&&&&&&&&&&&&&&&&&&   pppppiiii   iiipppyy  iippppppppyyyyyyyy   ppppiiyyy       MMMM       kkkkkkkkkkkkkklcccvnnnnnnnnn",
">;;;--*&&&&&&&&&&&&&&&&&&&   pMMMMpppii    iippppp  iiipppppppyyyppppppppppppiiyyyyy      MMMp    kkkkkkkkkkkkkkkklzccvnnnnnnnnn",
">;;;--*&&&&&&&&&&&&&&&&&&   ppMMMMpppii     iipppp  iiiippppppyypppppppppppppiiyyyyyy       ppp   kkkkkkkkkkkkkkkklcccvnnnnnnnnn",
">;;;--*&&&&&&&&&&&&&&&&&&  ppMMMMMppppp        pppp  iiiippppppppppppppppppppiiyyyyyy   pi   pp   kkkkkkkkkkkkkkkklcccvnnnnnnnnn",
">;;;--*&&&&&&&&&&&&&&&&&   ppMMMMMpyypppp       iip  iiiiippppppppppppppppppiiiyyyyyy   ppi       kkkkkkkkkkkkkkkklcccvnnnnnnnnn",
">;;;--*&&&&&&&&&&&&&&&&&   ppMMMpppyyypp   pi   iii   iiiiiiippppppppppppppiiiyyyyyy    ppi      kkkkkkkkkkkkkkkkklcccvnnnnnnnnn",
">;;;--*&&&&&&&&&&&&&&&&&  ippppppppyyyy   ppii  iiyy  iiiiiiiiiipppppppppiiiiiyyyyyy   pppii    kkkkkkkkkkkkkkkkkklccccnnnnnnnnn",
">;;;--*&&&&&&&&&&&&&&&&&  iippppppppyyy   ppp   iii:   iiiiiiiiiiiiiiiiiiiiiiyyyyyy    upppiii  kkkkkkkkkkkkkkkkkklcccvnnnnnnnnn",
">;;;-**&&&&&&&&&&&&&&&&&  iipppppppppyyyy       pptt:   iiiiiiiiiiiiiiiiiiiiyyyyyy    muuppiii   kkkkkkkkkkkkkkkkklcccvnnnnnnnnn",
">;;;-**&&&&&&&&&&&&&&&&&  iipppppppppyyyyyyy   ppputt:   yiiiiiiiiiiiiiiiiyyyyyy      uuuppiii   kkkkkkkkkkkkkkkkklccccvnnnnnnnn",
">;;;--*&&&&&&&&&&&&&      iippppppppyyyyyyyy   ppputt::    yyiiiiiiiiiiiyyyyyy       uuuuppiii   kkkkkkkkkkkkkkkkklcccvnnnnnnnnn",
">;;;--*&&&&&&&&&&&&       iiipppppppyyyppppppppppputt:::       yyyiiiyyyy          :::uuuppiiii  kkkkkkkkkkkkkkkkklcccvnnnnnnnnn",
">;;;--*&&&&&&&&&&&     p  iiiippppppyyppppppppppppptt:::::                     tuuuuuuuuppiiiii  kkkkkkkkkkkkkkkkklcccvnnnnnnnnn",
">;;;--*&&&&&&&&&&   ppppp  iiiippppppppppppppppppppit::::::                    ttuuuuuupppiiiii  kkkkkkkkkkkkkkkkklcccvnnnnnnnnn",
">;;;--*&&&&&&&&&   pMMMMp  iiiiippppppppppppppppppiiiy:::::   uummmmmuuuuu        uuuppppiiiiiy  kkkkkkkkkkkkkkkkklcccvnnnnnnnnn",
">;;;--*&&&&&&&&   ppMMMMp   iiiiiiippppppppppppppiiiyyyyy:    uummmmmu::uuuu       iippppiiiyyy  kkkkkkkkkkkkkkkkklcccvnnnnnnnnn",
">;;;--*&&&&&&&&  ppMMMMMpp  iiiiiiiiiipppppppppiiiiiyyyyyy    uummmuuu:::uu   pi   iiiiiiiiyyyy  kkkkkkkkkkkkkkkkklcccvnnnnnnnnn",
">;;;--*&&&&&&&   ppMMMMMp:   iiiiiiiiiiiiiiiiiiiiiiyyyyyy    tppppppppyyyy   ppii  iiyyyyyyyyyy  kkkkkkkkkkkkkkkkklcccvnnnnnnnnn",
">;;;--*&&&&&&&   ppMMMppu::   iiiiiiiiiiiiiiiiiiiiyyyyyy     ttppppppppyyy   ppp   iiiyyyyyyyy   kkkkkkkkkkkkkkkkklcccvnnnnnnnnn",
">;;;--*&&&&&&&  ipppppppu:::   yiiiiiiiiiiiiiiiiyyyyyy       ttpppppppppyyyy       ppiiyyyyyy   kkkkkkkkkkkkkkkkkklcccvnnnnnnnnn",
">;;;--*&&&&&&&  iippppppuu:::    yyiiiiiiiiiiiyyyyyy         ttpppppppppyyyyyyy   ppppiiyyyy    kkkkkkkkkkkkkkkkkklcccvnnnnnnnnn",
">;;;--*&&&&&&&  iippppppuuu:::       yyyiiiyyyy          uu  ttppppppppyyyyyyyy   ppppiiyyy     kkkkkkkkkkkkkkkkkklccccvnnnnnnnn",
">;;;--*&&&&&&&  iipppppppuu:::::                     :   uu  tiipppppppyyyppppppppppppiiyyyyy   kkkkkkkkkkkkkkkkkklcccvnnnnnnnnn",
">;;;--*&&&&&&&  iipppppppp::::::::              uuuu::::     iiiippppppyypppppppppppppiiyyyyyy   kkkkkkkkkkkkkkkkklcccvnnnnnnnnn",
">;;;--*&&&&&&&  iiipppppppyy:uuuuuuuuuu  ttuuuuuuuuu:::::::   iiiippppppppppppppppppppiiyyyyyy   kkkkkkkkkkkkkkkkklcccvnnnnnnnnn",
">;;;--*&&&&&&&  iiiippppppyypppuuuuuuuu  ttuuuuuuuu:::::yyy   iiiiippppppppppppppppppiiiyyyyyy   kkkkkkkkkkkkkkkkklzccvnnnnnnnnn",
">;;;--*&&&&&&&&  iiiipppppppppppppppuuu  tttuuuuuuuyyypppppp   iiiiiiippppppppppppppiiiyyyyyy    kkkkkkkkkkkkkkkkklccccnnnnnnnnn",
">;;;--*&&&&&&&&  iiiiippppppppppppppppp  iiiippppppyypppppppp  iiiiiiiiiipppppppppiiiiiyyyyyy   kkkkkkkkkkkkkkkkkklccccnnnnnnnnn",
">;;;--*&&&&&&&&   iiiiiiippppppppppppppi  iiiippppppppppppppu   iiiiiiiiiiiiiiiiiiiiiiyyyyyy    2kkkkkkkkkkkkkkkkklcccvnnnnnnnnn",
">;;;--*&&&&&&&&&  iiiiiiiiiipppppppppiii  iiiiippppppppppppuuu   iiiiiiiiiiiiiiiiiiiiyyyyyy    222kkkkkkkkkkkkkkkklcccvnnnnnnnnn",
">;;;--*&&&&&&&&X   iiiiiiiiiiiiiiiiiiiii   iiiiiiipppppppppuuuu   yiiiiiiiiiiiiiiiiyyyyyy      222kkkkkkkkkkkkkkkklzccvnnnnnnnnn",
">;;;--*&&&&&&&XXX   iiiiiiiiiiiiiiiiiiiiy  iiiiiiiiiippppppuuutt    yyiiiiiiiiiiiyyyyyy       2222kkkkkkkkkkkkkkkklzccvnnnnnnnnn",
">;;;-**&&&&&&&XXXX   yiiiiiiiiiiiiiiiiyy:   iiiiiiiiiiiiiiitttttt       yyyiiiyyyy          222222kkkkkkkkkkkkkkkklcccvnnnnnnnnn",
">;;;-**&&&&&&&XXXXX    yyiiiiiiiiiiiyyy:::   iiiiiiiiiiiiiiittttt::                     222222222kkkkkkkkkkkkkkkkklcccvnnnnnnnnn",
">;;;--*&&&&&&&XXXXXX       yyyiiiyyyy         yiiiiiiiiiiiiiitt::::::              2222222222222kkkkkkkkkkkkkkkkkklzccvnnnnnnnnn",
">;;;--*&&&&&&&&XXXXXXX                     .    yyiiiiiiiiiiiyy::::       ++++2222222222222222kkkkkkkkkkkkkkkkkkkkllccvnnnnnnnnn",
">;;;--*&&&&&&&&&XXXXXXXXXX            X......       yyyiiiyyyy          ++++++2222222222222kkkkkkkkkkkkkkkkkkkkkkklcccvnnnnnnnnn",
">;;;--*&&&&&&&&&&&XXXXXXXXXXXXXXXXXXXXXX.......                     222++++++222222222kkkkkkkkkkkkkkkkkkkkkkkkkkkklcccvnnnnnnnnn",
">;;;--*&&&&&&&&&&&&&&XXXXXXXXXXXXXXXXXXXX.....XXXXX            ,222222222222kkkkkkkkkkkkkkkkkkkkkkkkkkkkkkkkkkkkkklcccvnnnnnnnnn",
">;;;--*&&&&&&&&&&&&&&&&&&&XXXXXXXXXXXXXXX&&XXXXXXXXXXXXXXoO@#$=,2222222222kkkkkkkkkkkkkkkkkkkkkkkkkkkkkkkkkkkkkkkklcccvnnnnnnnnn",
">;;;--*&&&&&&&&&&&&&&&&&&&&&&&&&&&&&&&&&&&&&&&XXXXXXXXXXXoO@#$=,2222222kkkkkkkkkkkkkkkkkkkkkkkkkkkkkkkkkkkkkkkkkkklcccvnnnnnnnnn",
">;;;--*&&&&&&&&&&&&&&&&&&&&&&&&&&&&&&&&&&&&&&&&&&&&XXXXXXoO@#$=,22kkkkkkkkkkkkkkkkkkkkkkkkkkkkkkkkkkkkkkkkkkkkkkkklcccvnnnnnnnnn",
">;;;--*&&&&&&&&&&&&&&&&&&&&&&&&&&&&&&&&&&&&&&&&&&&&&&&&&&;1469afkkkkkkkkkkkkkkkkkkkkkkkkkkkkkkkkkkkkkkkkkkkkkkkkkklcccvnnnnnnnnn",
">;;;---&&&&&&&&&&&&&&&&&&&&&&&&&&&&&&&&&&&&&&&&&&&&&&&&&&;158wafkkkkkkkkkkkkkkkkkkkkkkkkkkkkkkkkkkkkkkkkkkkkkkkkklzccccnnnnnnnnn",
">;;;;---*************************************************<369esglllllllllllllllllllllllllllllllllllllllllllllllllzccccnnnnnnnnnn",
">>;;;;---*---------------*---------------*---------------<469esgcccccccccccccccczccccccccccccccccccccccccccccccczccccvnnnnnnnnnn",
">>;;;;;--------------------------------------------------1469efkccccccccccccccccccccccccccccccccccccccccccccccccccccvnnnnnnnnnnn",
">>;;;;;;;;;;;;;;;;;;;;;;;;;;;;;;;;;;;;;;;;;;;;;;;;;;;;;;;146qafkcccccccccccccccccccccccccccccccccccccccccccccccccccvnnnnnnnnnnnn",
">>>;;;;;;;;;;;;;;;;;;;;;;;;;;;;;;;;;;;;;;;;;;;;;;;;;;;;;;148wafkvvvccvvcvvvvvvvvvvvvcvvcvvvvvvvvvvvvcvvcvvvvvvvvvvnnnnnnnnnnnnnn",
">>>>>>;;;;;;;;;;;;;;;;;;;;;;;;;;;;;;;;;;;;;;;;;;;;;;;;;;;159esgxnnnnnnnvnnnnnnnnnnnnnnnvnnnnnnnnnnnnnnnvnnnnnnnnnnnnnnnnnnnnnnnn",
">>>>>>>>>>>>>>>>>>>>>>>>>>>>>>>>>>>>>>>>>>>>>>>>>>>>>>>>>369eshcnnnnnnnnnnnnnnnnnnnnnnnnnnnnnnnnnnnnnnnnnnnnnnnnnnnnnnnnnnnnnnnn",
">>>>>>>>>>>>>>>>>>>>>>>>>>>>>>>>>>>>>>>>>>>>>>>>>>>>>>>>>369eshcnnnnnnnnnnnnnnnnnnnnnnnnnnnnnnnnnnnnnnnnnnnnnnnnnnnnnnnnnnnnnnnn",
">>>>>>>>>>>>>>>>>>>>>>>>>>>>>>>>>>>>>>>>>>>>>>>>>>>>>>>>>369eshcnnnnnnnnnnnnnnnnnnnnnnnnnnnnnnnnnnnnnnnnnnnnnnnnnnnnnnnnnnnnnnnn",
">>>>>>>>>>>>>>>>>>>>>>>>>>>>>>>>>>>>>>>>>>>>>>>>>>>>>>>>>369eshcnnnnnnnnnnnnnnnnnnnnnnnnnnnnnnnnnnnnnnnnnnnnnnnnnnnnnnnnnnnnnnnn",
">>>>>>>>>>>>>>>>>>>>>>>>>>>>>>>>>>>>>>>>>>>>>>>>>>>>>>>>>369eshcnnnnnnnnnnnnnnnnnnnnnnnnnnnnnnnnnnnnnnnnnnnnnnnnnnnnnnnnnnnnnnnn",
">>>>>>>>>>>>>>>>>>>>>>>>>>>>>>>>>>>>>>>>>>>>>>>>>>>>>>>>>369eshcnnnnnnnnnnnnnnnnnnnnnnnnnnnnnnnnnnnnnnnnnnnnnnnnnnnnnnnnnnnnnnnn",
">>>>>>>>>>>>>>>>>>>>>>>>>>>>>>>>>>>>>>>>>>>>>>>>>>>>>>>>>369eshcnnnnnnnnnnnnnnnnnnnnnnnnnnnnnnnnnnnnnnnnnnnnnnnnnnnnnnnnnnnnnnnn",
">>>>>>>>>>>>>>>>>>>>>>>>>>>>>>>>>>>>>>>>>>>>>>>>>>>>>>>>>369eshcnnnnnnnnnnnnnnnnnnnnnnnnnnnnnnnnnnnnnnnnnnnnnnnnnnnnnnnnnnnnnnnn"
};
