/* XPM */
static char *bc830683dcdf435d971da6d6be3a9f241GH1b1fRZLp4CVqv[] = {
/* columns rows colors chars-per-pixel */
"128 128 83 1 ",
"  c #181425",
". c #1A1729",
"X c #1C1A2D",
"o c #1E1D31",
"O c #201F31",
"+ c #1F2035",
"@ c #212135",
"# c #23253B",
"$ c #282739",
"% c #26283E",
"& c #29293E",
"* c #252942",
"= c #292C45",
"- c #292E48",
"; c #2E3046",
": c #2C324D",
"> c #323346",
", c #31344A",
"< c #35394E",
"1 c #383A4D",
"2 c #2E3451",
"3 c #303652",
"4 c #323855",
"5 c #393F57",
"6 c #353D5D",
"7 c #383F5C",
"8 c #3E4155",
"9 c #3C425C",
"0 c #3A4466",
"q c #3E496A",
"w c #43475B",
"e c #43485E",
"r c #414963",
"t c #494F64",
"y c #424D6E",
"u c #4B5167",
"i c #47506C",
"p c #4A546F",
"a c #52586D",
"s c #465273",
"d c #4A5777",
"f c #4E5873",
"g c #4B5778",
"h c #4E5B7B",
"j c #545C73",
"k c #525E7C",
"l c #596075",
"z c #57627C",
"x c #586178",
"c c #5C647B",
"v c #60687E",
"b c #536180",
"n c #546281",
"m c #566484",
"M c #5C6780",
"N c #596685",
"B c #5C6985",
"V c #5A6988",
"C c #5C6A89",
"Z c #5E6C8A",
"A c #636D83",
"S c #606B84",
"D c #626F8A",
"F c #606F8E",
"G c #657088",
"H c #62708E",
"J c #67748F",
"K c #6A758C",
"L c #667693",
"P c #687794",
"I c #6E7990",
"U c #6D7A94",
"Y c #6C7C99",
"T c #707B92",
"R c #727F99",
"E c #73839E",
"W c #74839F",
"Q c #77859D",
"! c #7D8AA2",
"~ c #7989A4",
"^ c #7F8FA9",
"/ c #8595AF",
"( c #8B9BB4",
/* pixels */
"                                                                                                                                ",
"                                                                                                                                ",
"                                                                                                                                ",
"                                                                                                                                ",
"                                                                                                                                ",
"                                                                                                                                ",
"                                                                                                                                ",
"                                                                                                                                ",
"                                                                                                                                ",
"                                                                                                                                ",
"                                                                                                                                ",
"                                                                                                                                ",
"                                                                                                                                ",
"                                                                                                                                ",
"                                                                                                                                ",
"                                                                                                                                ",
"                                                                                                                                ",
"  ..XXXoOO@@@@@##########@@OOXX                                                                                                 ",
" .XXO@##&&==;>>>,,,,,,,,,>=$#@OX                                                                                                ",
" .X@#%=;,,<5588wwwwwwwwww81>=$@X                                                                                                ",
" XO#&=,4599ertuuaaaaaaaaatw5,=#X                                                                                                ",
" X@$=,59rripjjxcvvvvvvvvvjue5>$O                                                                                                ",
" X#=,59rpfkzMSGKIIIIIIIIIAluw1=@                                                                                                ",
" X#;49rfkmBDJURQ!!!!!!!!!TAjt8>@                                                                                                ",
" O&,5rpkVFLYE~^/(((((((((!Ivaw,#                                                                                                ",
" O&;50ihmCHPYE~^/////////QKcuw>#                                                                                                ",
" o%;49ydbNCHPYW~^^^^^^^^^RGxuw>@                                                                                                ",
" o#=49rshbNZHPYE~~~~~~~~~USjt8>@                                                                                                ",
" X#=,50ydhnNZHPYEEEEEEEEEJMjr5;@                                                                                                ",
" X#*:49rsdknNZHPYYYYYYYYYDzpe5=@                                                                                                ",
" X@*;470ysgknNCHLLLLLLLLLBki9<=@                                                                                                ",
" X@%-360qysdhbNCFFFFFFFFFmfr9,&O                                                                                                ",
" X@%=:460qysdhbmVVVVVVVVVkpr5,&O                                                                                                ",
" X@%=:460qysdhbmVVVVVVVVVkpr5,&O                                                                                                ",
" X@%=:460qysdhbmVVVVVVVVVkpr5,&O                                                                                                ",
" X@%=:460qysdhbmVVVVVVVVVkpr5,&O                                                                                                ",
" X@%=:460qysdhbmVVVVVVVVVkpr5,&O                                                                                                ",
" X@%=:460qysdhbmVVVVVVVVVkpr5,&O                                                                                                ",
" X@%=:460qysdhbmVVVVVVVVVkpr5,&O                                                                                                ",
" X@%=:460qysdhbmVVVVVVVVVkpr5,&O                                                                                                ",
" X@%=:460qysdhbmVVVVVVVVVkpr5,&O                                                                                                ",
" X@%=:460qysdhbmVVVVVVVVVkpr5,&O   ....XXXXXXOoOOOOOOOOOOoXXX..                                                                 ",
" X@%=:460qysdhbmVVVVVVVVVkpr5,&O  ..XXoo@@@###%&&&&&&&&&&##@OXX.                                                                ",
" X@%=:460qysdhbmVVVVVVVVVkpr5,&O ..XoO@#%%**==;;,,,,,,,,,;=%#@X.                                                                ",
" X@%=:460qysdhbmVVVVVVVVVkpr5,&O .Xo@#%*=-;:,4455555555554,=&#OX                                                                ",
" X@%=:460qysdhbmVVVVVVVVVkpr5,&O .XO#%*-:3445990rrrrrrrrr95,=%@X                                                                ",
" X@%=:460qysdhbmVVVVVVVVVkpr5,&O .o@%*-246790ryipppppppppr95,=#X                                                                ",
" X@%=:460qysdhbmVVVVVVVVVkpr5,&O Xo#*-24600rysdhkkkkkkkkkfr9<;#o                                                                ",
" X@%=:460qysdhbmVVVVVVVVVkpr5,&O X@%=:460qysghbmVVVVVVVVVkpr5,&O                                                                ",
" X@%=:460qysdhbmVVVVVVVVVkpr5,&O XO%*;3600qysdhbmmmmmmmmmhi05;&O                                                                ",
" X@%=:460qysdhbmVVVVVVVVVkpr5,&O Xo#*-:4600rysdhbbbbbbbbbdy94;%o                                                                ",
" X@%=:460qysdhbmVVVVVVVVVkpr5,&O Xo#%=:26900rysdhhhhhhhhhsr94=#o                                                                ",
" X@%=:460qysdhbmVVVVVVVVVkpr5,&O .o@%*-:46600rysdddddddddy05,=#X                                                                ",
" X@%=:460qysdhbmVVVVVVVVVkpr5,&O .o@#*=:245600rysssssssssr94:*#X                                                                ",
" X@%=:460qysdhbmVVVVVVVVVkpr5,&O .Xo##*-:245600qyyyyyyyyy074;*@X                                                                ",
" X@%=:460qysdhbmVVVVVVVVVkpr5,&O .Xo@#%*-:246600qqqqqqqqq063-%@X                                                                ",
" X@%=:460qysdhbmVVVVVVVVVkpr5,&O .Xo+##**-:2466000000000064:=%@X                                                                ",
" X@%=:460qysdhbmVVVVVVVVVkpr5,&O .Xo+##**-:2466000000000064:=%@X   ....XXXXXXooOOOOOOOOOOoXXX..                                 ",
" X@%=:460qysdhbmVVVVVVVVVkpr5,&O .Xo+##**-:2466000000000064:=%@X  ..XXoo@@@####&&&&&&&&&&##@OXX.                                ",
" X@%=:460qysdhbmVVVVVVVVVkpr5,&O .Xo+##**-:2466000000000064:=%@X ..XoO@#%%**==;;,,,,,,,,,;=%#@X.                                ",
" X@%=:460qysdhbmVVVVVVVVVkpr5,&O .Xo+##**-:2466000000000064:=%@X .Xo@#%*=-;:,445555555555<,=&#OX                                ",
" X@%=:460qysdhbmVVVVVVVVVkpr5,&O .Xo+##**=:2466000000000064:=%@X .XO#%*-:3445990rrrrrrrrr95,=%@X                                ",
" X@%=:460qysdhbmVVVVVVVVVkpr5,&O .Xo+##%*-:2466000000000064:=%@X .o@%*-246790ryipppppppppr95,=#X                                ",
" X@%=:460qysdhbmVVVVVVVVVkpr5,&O .Xo+@#**=:2466000000000064:=%@X Xo#*-24600rysdhkkkkkkkkkfr94;#o                                ",
" X@%=:460qysdhbmVVVVVVVVVkpr5,&O .Xo+##**-:2266000000000064:=%@X X@%=:460qysdhbmVVVVVVVVVkpr5,&O                                ",
" X@%=:460qysdhbmVVVVVVVVVkpr5,&O .Xo+##**-:2466000000000064:=%@X XO%*;3600qysdhbmmmmmmmmmhi05;&O                                ",
" X@%=:460qysdhbmVVVVVVVVVkpr5,&O .Xo+##**-:2266000000000064:=%@X Xo#*-:4600rysdhbbbbbbbbbdy94;%o                                ",
" X@%=:460qysdhbmVVVVVVVVVkpr5,&O .Xo+##**-:2466000000000064:=%@X Xo#%=:26600rysdhhhhhhhhhsr94=#o                                ",
" X@%=:460qysdhbmVVVVVVVVVkpr5,&O .Xo+##**-:2466000000000064:=%@X .o@%*-:46600rysdddddddddy05,=#X                                ",
" X@%=:460qysdhbmVVVVVVVVVkpr5,&O .Xo+##**-:2466000000000064:=%@X .o@#*=:245600qysssssssssr94:*#X                                ",
" X@%=:460qysdhbmVVVVVVVVVkpr5,&O .Xo+##**-:2466000000000064:=%@X .Xo#%*-:245600qyyyyyyyyy074;*@X                                ",
" X@%=:460qysdhbmVVVVVVVVVkpr5,&O .Xo+##**-:2466000000000064:=%@X .Xo@#%*-:246600qqqqqqqqq063-%@X                                ",
" X@%=:460qysdhbmVVVVVVVVVkpr5,&O .Xo+##**-:2266000000000064:=%@X .Xo+##**-:2266000000000064:=%@X                                ",
" X@%=:460qysdhbmVVVVVVVVVkpr5,&O .Xo+##**-:2266000000000064:=%@X .Xo+##**-:2466000000000064:=%@X      .......XXXXX....          ",
" X@%=:460qysdhbmVVVVVVVVVkpr5,&O .Xo+##**-:2466000000000064:=%@X .Xo+##%*-:2266000000000064:=%@X   ....XXXXooooO@ooXX..         ",
" X@%=:460qysdhbmVVVVVVVVVkpr5,&O .Xo+##**-:2266000000000064:=%@X .Xo+##**-:2466000000000064:=%@X  ...XXXooo@@##%%#@OoX..        ",
" X@%=:460qysdhbmVVVVVVVVVkpr5,&O .Xo+##**-:2466000000000064:=%@X .Xo+##**-:2466000000000064:=%@X  ..XXoo+@##%%**=*%#@oX.        ",
" X@%=:460qysdhbmVVVVVVVVVkpr5,&O .Xo+##**-:2466000000000064:=%@X .Xo+##**-:2466000000000064:=%@X  .XXoo@##%**=-;:-*%#OX.        ",
" X@%=:460qysdhbmVVVVVVVVVkpr5,&O .Xo+##**-:2466000000000064:=%@X .Xo+##**-:2466000000000064:=%@X ..Xoo@##%*=-::342-*%@o.        ",
" X@%=:460qysdhbmVVVVVVVVVkpr5,&O .Xo+##**-:2466000000000064:=%@X .Xo+##**-:2466000000000064:=%@X .XXo@##**-::246642-*#oX        ",
" X@%=:460qysdhbmVVVVVVVVVkpr5,&O .Xo+##**-:2266000000000064:=%@X .Xo+##**-:2466000000000064:=%@X .Xo+##**-:24660064:=%@X        ",
" X@%=:460qysdhbmVVVVVVVVVkpr5,&O .Xo+##**-:2466000000000064:=%@X .Xo+##**=:2266000000000064:=%@X .XXo@##**-:2466063;*%OX        ",
" X@%=:460qysdhbmVVVVVVVVVkpr5,&O .Xo+##**-:2266000000000064:=%@X .Xo+##**-:2466000000000064:=%@X ..Xoo@##**-:24664:-*#oX        ",
" X@%=:460qysdhbmVVVVVVVVVkpr5,&O .Xo+##**-:2466000000000064:=%@X .Xo+##**-:2266000000000064:=%@X  .XXoo@##**-:2462:=%#oX        ",
" X@%=:460qysdhbmVVVVVVVVVkpr5,&O .Xo+##**-:2466000000000064:=%@X .Xo+##**-:2266000000000064:=%@X  ..XXoo+##*=-:24:-*%@o.        ",
" X@%=:460qysdhbmVVVVVVVVVkpr5,&O .Xo+##**-:2466000000000064:=%@X .Xo+##**-:2266000000000064:=%@X  ...XXXo+##**-:2:=*#@o.        ",
" X@%=:460qysdhbmVVVVVVVVVkpr5,&O .Xo+##**-:2466000000000064:=%@X .Xo+##**-:2466000000000064:=%@X   ....XXo+##**-:-*%#oX.        ",
" X@%=:460qysdhbmVVVVVVVVVkpr5,&O .Xo+##**-:2466000000000064:=%@X .Xo+##**-:2466000000000064:=%@X      ...Xo+##**-*%#@oX.        ",
" X@%=:460qysdhbmVVVVVVVVVkpr5,&O .Xo+##**=:2466000000000064:=%@X .Xo+##**-:2466000000000064:=%@X         .Xo+##***##+oX.        ",
" X@%=:460qysdhbmVVVVVVVVVkpr5,&O .Xo+##**=:2466000000000064:=%@X .Xo+##**-:2466000000000064:=%@X         .Xo+##%**##+oX.        ",
" X@%=:460qysdhbmVVVVVVVVVkpr5,&O .Xo+##**-:2466000000000064:=%@X .Xo+##**-:2466000000000064:=%@X         .Xo+##***##+oX.        ",
" X@%=:460qysdhbmVVVVVVVVVkpr5,&O .Xo+##**-:2266000000000064:=%@X .Xo+##**-:2466000000000064:=%@X         .Xo+##***##+oX.        ",
" X@%=:460qysdhbmVVVVVVVVVkpr5,&O .Xo+##**-:2466000000000064:=%@X .Xo+##**-:2466000000000064:=%@X         .Xo+##***##+oX.        ",
" X@%=:460qysdhbmVVVVVVVVVkpr5,&O .Xo+##**-:2466000000000064:=%@X .Xo+@#**=:2466000000000064:=%@X         .Xo+##***##+oX.        ",
" X@%=:460qysdhbmVVVVVVVVVkpr5,&O .Xo+##**-:2466000000000064:=%@X .Xo+##**-:2466000000000064:=%@X         .Xo+##***##+oX.        ",
" X@%=:460qysdhbmVVVVVVVVVkpr5,&O .Xo+##**-:2466000000000064:=%@X .Xo+##**=:2466000000000064:=%@X         .Xo+##***##+oX.        ",
" X@%=:460qysdhbmVVVVVVVVVkpr5,&O .Xo+##**-:2466000000000064:=%@X .Xo+##**-:2466000000000064:=%@X         .Xo+##***##+oX.        ",
" X@%=:460qysdhbmVVVVVVVVVkpr5,&O .Xo+##**-:2466000000000064:=%@X .Xo+##**-:2466000000000064:=%@X         .Xo+##***#@+oX.        ",
" X@%=:460qysdhbmVVVVVVVVVkpr5,&O .Xo+##%*=:2466000000000064:=%@X .Xo+##%*=:2466000000000064:=%@X         .Xo+##***##+oX.        ",
" X@%=:460qysdhbmVVVVVVVVVkpr5,&O .Xo+##**-:2466000000000064:=%@X .Xo+##**-:2466000000000064:=%@X         .Xo+##***##+oX.        ",
" X@%=:460qysdhbmVVVVVVVVVkpr5,&O .Xo+##**=:2466000000000064:=%@X .Xo+##**=:2466000000000064:=%@X         .Xo+##***##+oX.        ",
" X@%=:460qysdhbmVVVVVVVVVkpr5,&O .Xo+##**=:2466000000000064:=%@X .Xo+##**=:2466000000000064:=%@X         .Xo+@#***##+oX.        ",
" X@%=:460qysdhbmVVVVVVVVVkpr5,&O .Xo+##**-:2466000000000064:=%@X .Xo+##**-:2466000000000064:=%@X         .Xo+##***##+oX.        ",
" X@%=:460qysdhbmVVVVVVVVVkpr5,&O .Xo+##**-:2466000000000064:=%@X .Xo+##**-:2466000000000064:=%@X         .Xo+##***##+oX.        ",
" X@%=:460qysdhbmVVVVVVVVVkpr5,&O .Xo+##**-:2466000000000064:=%@X .Xo+##**-:2466000000000064:=%@X         .Xo+##***##+oX.        ",
" X@%=:460qysdhbmVVVVVVVVVkpr5,&O .Xo+##**-:2466000000000064:=%@X .Xo+##**-:2466000000000064:=%@X         .Xo+##***#@+oX.        ",
" X@%=:460qysdhbmVVVVVVVVVkpr5,&O .Xo+##**-:2466000000000064:=%@X .Xo+##**-:2466000000000064:=%@X         .Xo+##***##+oX.        ",
" X@%=:460qysdhbmVVVVVVVVVkpr5,&O .Xo+##**-:2466000000000064:=%@X .Xo+##**-:2466000000000064:=%@X         .Xo+##***##+oX.        ",
" X@%=:460qysdhbmVVVVVVVVVkpr5,&O .Xo+##**=:2466000000000064:=%@X .Xo+##**=:2466000000000064:=%@X         .Xo+##***##+oX.        ",
" X@%=:460qysdhbmVVVVVVVVVkpr5,&O .Xo+##**=:2466000000000064:=%@X .Xo+##**=:2466000000000064:=%@X         .Xo+@#***##+oX.        ",
" X@%=:460qysdhbmVVVVVVVVVkpr5,&O .Xo+##**-:2466000000000064:=%@X .Xo+##**-:2466000000000064:=%@X         .Xo+##***##+oX.        ",
" X@%=:460qysdhbmVVVVVVVVVkpr5,&O .Xo+##**-:2466000000000064:=%@X .Xo+##**-:2466000000000064:=%@X         .Xo+##***##+oX.        ",
" X@%=:460qysdhbmVVVVVVVVVkpr5,&O .Xo+##**-:2466000000000064:=%@X .Xo+##**-:2466000000000064:=%@X         .Xo+##***##+oX.        ",
" Xo#*-24600rysdhkkkkkkkkkfr94;#o .XXo@##**-::24666666666642-*#oX .XXo@##**-::24666666666642-*#oX         .XXo@##*##@oXX.        ",
" .o@%*-246790ryipppppppppr95,=#X ..Xoo@##%*=-::34444444442-*%@o. ..Xoo@##%*=-::34444444442-*%@o.         ..Xoo@###@ooX..        ",
" .XO#%*-:3445990rrrrrrrrr95,=%@X  .XXoo@##%**=-;:::::::::-*%#OX.  .XXoo@##%**=-;:::::::::-*%#OX.          .XXoo@#@ooXX.         ",
" .Xo@#%*=-;,,4455555555554,=&#OX  ..XXoo+@##%%**=========*%#@oX.  ..XXoo+@##%%**=========*%#@oX.          ..XXoo+ooXX..         ",
" ..XoO@#%%**==;;,,,,,,,,,;=%#@X.  ...XXXooo@@##%%%%%%%%%%#@OoX..  ...XXXooo@@##%%%%%%%%%%#@OoX..          ...XXXoXXX...         ",
"  ..XXoo@@@###%&&&&&&&&&&##@OXX.   ....XXXXooooO@@@@@@@@@ooXX..    ....XXXXooooO@@@@@@@@@ooXX..            ....XXX....          ",
"   ....XXXXXXooOOOOOOOOOOoXXX..       .......XXXXXXXXXXXXX....        .......XXXXXXXXXXXXX....                .....             ",
"                                                                                                                                ",
"                                                                                                                                ",
"                                                                                                                                ",
"                                                                                                                                ",
"                                                                                                                                ",
"                                                                                                                                ",
"                                                                                                                                ",
"                                                                                                                                "
};
