/* XPM */
static char *bad03d749ec242d5d1c0ede00d625364sGhM4nlKW6XyA6aO[] = {
/* columns rows colors chars-per-pixel */
"128 128 52 1 ",
"  c #161C2E",
". c #272F48",
"X c #29314A",
"o c #2B334C",
"O c #2D364E",
"+ c #2F3850",
"@ c #313A52",
"# c #333C54",
"$ c #343E56",
"% c #364058",
"& c #3A4466",
"* c #3B4567",
"= c #3C4667",
"- c #3D4769",
"; c #3F496B",
": c #404A6B",
"> c #404B6C",
", c #434E6F",
"< c #444F70",
"1 c #404E75",
"2 c #475273",
"3 c #475374",
"4 c #485475",
"5 c #4A5777",
"6 c #4B5778",
"7 c #4C5879",
"8 c #4E5B7B",
"9 c #4E5B7C",
"0 c #4F5C7D",
"q c #515E7F",
"w c #515F7F",
"e c #977B6B",
"r c #526080",
"t c #546182",
"y c #576586",
"u c #586687",
"i c #596788",
"p c #5A6988",
"a c #5B6A89",
"s c #5C6B8A",
"d c #5C6C8B",
"f c #5C6B8C",
"g c #5F6E8F",
"h c #5F6F90",
"j c #607090",
"k c #617192",
"l c #3E8698",
"z c #5AB3AC",
"x c #D5B583",
"c c #EFE1AB",
"v c #EDE6AC",
"b c white",
/* pixels */
"kkkkkkkkkkkkkkkkkkkkkkkkkkkkkkkkkkkkkkkkkkkkkkkkkkkkkkkkkgitq74<::::::::::::::::::::::::::::::::::::::::::::::::::::::::::::::::",
"kkkkkkkkkkkkkkkkkkkkkkkkkkkkkkkkkkkkkkkkkkkkkkkkkkkkkkkkkfutq73,;;;;;;;;;;;;;;;;;;;;;;;;;;;;;;;;;;;;;;;;;;;;;;;;;;;:::::::::::::",
"kkkkkkkhhhhhhhhhhhhhhhhhhhhhhhhhhhhhhhhhhhhhhhhhhhhhhhhhhayr062,;;;;;;;;;;;;;;;;;;;;;;;;;;;;;;;;;;;;;;;;;;;;;;;;;;;;;;::::::::::",
"kkkkkggggggggggggggggggggggggggggggggggggggggggggggggggggayr942,;;;;;;;;;;;;;;;;;;;;;;;;;;;;;;;;;;;;;;;;;;;;;;;;;;;;;;;:::::::::",
"kkkkhggggggggggggggggggggggggggggggggggggggggggggggggggggayq742,--------------------------------------------------;;;;;:::::::::",
"kkkhgggggggdgggggdggggggggggggdsgggdgggggdggggggggggggdsgutq742>----------------------==----------------------====-;;;;:::::::::",
"kkkggggdssssssssaassssasssssssssssssssssaasssssssssssssssutq74<>==============================*===================--;;;;::::::::",
"kkhgggdsaaaaaaaaaaaaaaaaaaaaaaaaaaaaaaaaaaaaaaaaaaaaaaaaayr063,;**************************************************---;;;::::::::",
"kkhgggaaaaaaaaaaaaaaaaaaaaaaaaaaaaaaaaaaaaaaaaaaaaaaaaaaayr742,;**************************************************=--;;;::::::::",
"kkhggdsaaaaaaaaaaaaaaaaaaaaaaaaaaaaaaaaaaaaaaaaaaaaaaaaaayr742,;**************************************************=--;;;::::::::",
"kkhgggsaaaaaaaaaaaaaaaaaaaaaaaaaaaaaaaaaaaaaaaaaaaaaaaaaayr742,;**************************************************=--;;;::::::::",
"kkhgggsaaaaaaaaaaaaaaaaaaaaaaaaaaaaaaaaaaaaaaaaaaaaaaaaaayr742,;**************************************************=--;;;::::::::",
"kkhgggsaaaaaaaaaaaaaaaaaaaaaaaaaaaaaaaaaaaaaaaaa       aayr742,;**************************************************=--;;;::::::::",
"kkhgggsaaaaaaaaaaaaaaaaaaaaaaaaaaaaaaaaaaaaaaa   llll     r742,;**************************************************=--;;;::::::::",
"kkhgggsaaaaaaaaaaaaaaaaaaaaaaaaaaaaaaaaaaaaa      ll        42,;**************************************************=--;;;::::::::",
"kkhgggsaaaaaaaaaaaaaaaaaaaaaaaaaaaaaaaaaaaa      llzzzzzz     ,;**************************************************=--;;;::::::::",
"kkhgggsaaaaaaaaaaaaaaaaaaaaaaaaaaaaaaaaaaa     lllzzzzzzzzzz    **************************************************=--;;;::::::::",
"kkhgggsaaaaaaaaaaaaaaaaaaaaaaaaaaaaaaaaaa    lllllllzzzlllzzzll  *************************************************=--;;;::::::::",
"kkhgggsaaaaaaaaaaaaaaaaaaaaaaaaaaaaaaaaa   11lllzzzzzzlllzzzzzzz  ************************************************=--;;;::::::::",
"kkhgggsaaaaaaaaaaaaaaaaaaaaaaaaaaaaaaaa     lllllzzzzzzzzzzzzzzzz  ***********************************************=--;;;::::::::",
"kkhgggsaaaaaaaaaaaaaaaaaaaaaaaaaaaaaaaa   lllllllzzzzzzzzllzzzzzlll **********************************************==-;;;::::::::",
"kkhgggsaaaaaaaaaaaaaaaaaaaaaaaaaaaaaaa    lllllllzzzzzzzzzllzzzzzl   *********************************************==-;;;::::::::",
"kkhggdsaaaaaaaaaaaaaaaaaaaaaaaaaaaaaaa  1111llllllzzzzzzzzzllzzzzzz  *********************************************==-;;;::::::::",
"kkhggssaaaaaaaaaaaaaaaaaaaaaaaaaaaaaaa   1llllll      zzzzzzz zzzzz   ********************************************=--;;;::::::::",
"kkhgggsaaaaaaaaaaaaaaaaaaaaaaaaaaaaaaa  111lll          zzzzzl lzzzll ********************************************=--;;;::::::::",
"kkhgggsaaaaaaaaaaaaaaaaaaaaaaaaaaaaaaa  1llll            zzzzz  zzzz  ********************************************=--;;;::::::::",
"kkhgggsaaaaaaaaaaaaaaaaaaaaaaaaaaaaaaa  1lllll111111      zzzzz  zzzl  *******************************************=--;;;::::::::",
"kkhggdsaaaaaaaaaaaaaaaaaaaaaaaaaaaaaaa  11lll11111111      lzzzl  zzl  *******************************************=--;;;::::::::",
"kkhgggsaaaaaaaaaaaaaaaaaaaaaaaaaaaaaaa   111lll1111111      lzzl  zll  *******************************************=--;;;::::::::",
"kkhgggsaaaaaaaaaaaaaaaaaaaaaaaaaaaaaaaa  11lll11111111      llzz  z11  *******************************************=--;;;::::::::",
"kkhgggsaaaaaaaaaaaaaaaaaaaaaaaaaaaaaaaa   11111111111       11ll lll11 *******************************************=--;;;::::::::",
"kkhgggsaaaaaaaaaaaaaaaaaaaaaaaaaaaaaaaaa    1111111    aa    ll111l11  *******************************************=--;;;::::::::",
"kkhgggaaaaaaaaaaaaaaaaaaaaaaaaaaaaaaaaaaa             aaay   ll   l1  ********************************************=--;;;::::::::",
"kkhggdaaaaaaaaaaaaaaaaaaaaaaaaaaaaaaaaaaaa           aaaay   ll  ll   ********************************************==-;;;::::::::",
"kkhgggsaaaaaaaaaaaaaaaaaaaaaaaaaaaaaaaaaaaaaa      aaaaaa    l111ll  *********************************************=--;;;::::::::",
"kkhgggsaaaaaaaaaaaaaaaaaaaaaaaaaaaaaaaaaaaaaaaaaaaaaa        l   l     *******************************************=--;;;::::::::",
"kkhgggsaaaaaaaaaaaaaaaaaaaaaaaaaaaaaaaaaaaaaaaaaaaa     e   11   1       *********************************xx******=--;;;::::::::",
"kkhgggsaaaaaaaaaaaaaaaaaaaaaaaaaaaaaaaaaaaaaaaaaaa   eeee  11      xxx    *******************************xxx******=--;;;::::::::",
"kkhgggsaaaaaaaaaaaaaaaaaaaaaaaaaaaaaaaaaaaaaaaaaa   xxxxe1 11      bbbbb   *****************************xxxx******=--;;;::::::::",
"kkhgggsaaaaaaaaaaaaaaaaaaaaaaaaaaaaaaaaaaaaaaaaa     bbbbbbbbbbbbbbbbbx     ***************************xxxxx******=--;;;::::::::",
"kkhgggsaaaaaaaaaaaaaaaaaaaaaaaaaaaaaaaaaaaaaaaa        xxbbbbbbbbbbxxx      **************************xxxbx ******=--;;;::::::::",
"kkhgggsaaaaaaaaaaaaaaaaaaaaaaaaaaaaaaaaaaaaaaaa   ee    ccccccxxxxxcccccxx   ************************xxxbb  ******=--;;;::::::::",
"kkhgggsaaaaaaaaaaaaaaaaaaaaaaaaaaaaaaaaaaaaaaa    eeexccccccccccccccccccxxx  ***********************xxxbbb  ******=--;;;::::::::",
"kkhgggsaaaaaaaaaaaaaaaaaaaaaaaaaaaaaaaaaaaaaaa    eeexxcccccccccbbbbbbcxxxx  ********************** xxbbbv  ******=--;;;::::::::",
"kkhgggsaaaaaaaaaaaaaaaaaaaaaaaaaaaaaaaaaaaaaaa   eeeexxxccccbbbbbbbbbbbbccxx  ********************  xbbbbv  ******==-;;;::::::::",
"kkhgggsaaaaaaaaaaaaaaaaaaaaaaaaaaaaaaaaaaaaaa    eeexxxxccccccccccbbbbbbcccx  *******************x  bbbbvv  ******==-;;;::::::::",
"kkhggdsaaaaaaaaaaaaaaaaaaaaaaaaaaaaaaaaaaaaaa   eeeexxxxccccccccccccc  xccccx  ******************x vbbbbvv  ******==-;;;::::::::",
"kkhggssaaaaaaaaaaaaaaaaaaaaaaaaaaaaaaaaaaaaaa   eeeexxxxcccccccccccbb  xxcccx  *****************xxxvbbbxvv  ******=--;;;::::::::",
"kkhgggsaaaaaaaaaaaaaaaaaaaaaaaaaaaaaaaaaaaaaa   eeeexxxxxxxcccccccccc   xxccc   ****************xxbvbbxxvv  ******=--;;;::::::::",
"kkhgggsaaaaaaaaaaaaaaaaaaaaaaaaaaaaaaaaaaaaa     eexxxxxxxccccccccbbb   xxbbc   ***************  xbvbbxxxv  ******=--;;;::::::::",
"kkhgggsaaaaaaaaaaaaaaaaaaaaaaaaaaaaaaaaaaaaa   eeeexxxxxxxxxcccccbbbb    xxcc   ***************  bbvbxxvxv  ******=--;;;::::::::",
"kkhggdsaaaaaaaaaaaaaaaaaaaaaaaaaaaaaaaaaaaaa   eeeexxxxxxxxxxxxccbbbb    xxccxx **************   bbvxxxvx  *******=--;;;::::::::",
"kkhgggsaaaaaaaaaaaaaaaaaaaaaaaaaaaaaaaaaaaaa   eeeexxxxxxxxxxxccccccc    xxxbb  **************  vbvvxxxv   *******=--;;;::::::::",
"kkhgggsaaaaaaaaaaaaaaaaaaaaaaaa    aaaaaaaa    eeexxxxxxxxxxxxccccbbb     xxcc   ************   vvvxxxxx  ********=--;;;::::::::",
"kkhgggsaaaaaaaaaaaaaaaaaaaaaaa      aaaaaaa    eeexxxxxxxxxxxxcccccbb     xxcc   ************  vvvvxxxx   ********=--;;;::::::::",
"kkhgggsaaaaaaaaaaaaaaaaaaaaaaa   x   aaaaaa    eeeexxxxxxxxxxxccccbb             ***********   vvvxxxxx  *********=--;;;::::::::",
"kkhgggsaaaaaaaaaaaaaaaaaaaaaaa   xx   aaaaa       eeeexx                         ***********  vvvxxxxx   *********=--;;;::::::::",
"gfaaauuyyyyyyyyyyyyyyyyyyyyyyy    xxx   yyy      eeexxxxxx                        ;;;;;;;;;   vvvxxxxx  ;;;;;;;;;;>>,,,,<<<<<<<<",
"iuyyyttrrrrrrqrrrrrrrrrrrrrrrr     xxx   rrr    eeeexxxxxccc                 cc   ,,,,,,,,,  vvv xxxx   ,,,,,,,,,,<2222344444444",
"ttrrqqq07777777777777777777777      xxx    7    eeeexxxxxxccccc            xxbc   22222222   vv  xxxx  2222222222344446777777777",
"qq0977764444444444444444444444  l    xxx         eexxxxxxxxxccccccccb      xxccc  44444444  vvv  xxx   4444444444677790qqqqqqqqq",
"776444432222222222222222222222  lll   xxx        eeeeeeexxxxxxccccbbbb    xxcccc  7777777   vve xxxx  777777777770qqqrrttttttttt",
"432222<,,,,,,,,,,,,,,,,,,,,,,,  lllll  xxxx       eeeeexxxxxxxcccccbbb    xxbbcc  rrrrrrr  vvve xxx   rrrrrrrrrrrrttyyyuiiiiiiii",
"<,,,,>>;;;;;;;;;;;;;;;;;;;;;;;  lllllll  eeee      eeeexxxxxxxxccccccb   xxbbccc  yyyyyy   vve  xxx  yyyyyyyyyyyyyuuaaafgggggggg",
":;;;--=***********************  llllllleeeexxxx     eeexxxxxxxxccccccb   xxcccxx     aaa  xvve xxx   aaaaaaaaaaaaasggghkkkkkkkkk",
":;;;--=***********************  lllllllllxxxxxxxxx      xxxxxxxxccccbb   xccccc        a  xv e xxx  aaaaaaaaaaaaaasggghkkkkkkkkk",
":;;;--=***********************  llllllllxx     vvxxvvv   xxxxxxxcccccc  xxccccc   zzz    xxx  xxx   aaaaaaaaaaaaaasggghkkkkkkkkk",
":;;;--=***********************  llllllllxxxx      vvvv   xxxxxxxccccccbbbccccc    zzzl   xx   xxx  aaaaaaaaaaaaaaasgggghkkkkkkkk",
":;;;--=***********************  llllzzzlxxxxxxx     xx    xxxxxxcccccbbbbccccx   l lzl  xxx  exx   aaaaaaaaaaaaaaasggghkkkkkkkkk",
":;;;--=***********************  llllllllxxxxxxxxx   xx       xxxccccccccccxxx   zl   l  xx   exx  aaaaaaaaaaaaaaaasggghkkkkkkkkk",
":;;;--=***********************  lllllzzzvvvvxxxxxx  vx         xcccccbbbcccx    zzl    xxx  eee   aaaaaaaaaaaaaaaasggghkkkkkkkkk",
":;;;--=***********************  lllllllzvvvxxxxxxx  vx           cccccccccc  1  zzzl   xx   eee  aaaaaaaaaaaaaaaaasdgghkkkkkkkkk",
":;;;--=***********************  llllllzzzvvvvxxxxx  xx             xxccccc  111 lzzll      eee    aaaaaaaaaaaaaaaasggghkkkkkkkkk",
":;;;--=***********************  lllllllzzvxxxxxxxx  xx   11           cc    11   lllll     eee     aaaaaaaaaaaaaaasggghkkkkkkkkk",
":;;;--=***********************  xllllllzzxxvvvxxxxe xx   11111             11111  llllll       1    aaaaaaaaaaaaaasggghkkkkkkkkk",
":;;;--=***********************  xxxllllllvvxvvxxxxe xx   ll111111         11ll11    lll111     11ll  aaaaaaaaaaaaasggghkkkkkkkkk",
":;;;--=***********************  xxxxxllllxxxxxxxxxe xx   1lll111111      11ll11       lll111    11l  aaaaaaaaaaaaasggggkkkkkkkkk",
":;;;--=***********************  xxxxxvvzzxxxxxxxxxeexx   1lllll111111   111ll11   ee    111111       aaaaaaaaaaaaasggghkkkkkkkkk",
":;;;-==***********************  xxxxxvvvzxxxxxxxxxeexx   1lllllll111111111ll11   eeeee    111       aaaaaaaaaaaaaasggghkkkkkkkkk",
":;;;-==***********************  xxxxvvvvvllxxxxxxxeexx   11llllllll111111ll11    eeexxx     11111  aaaaaaaaaaaaaaasgggghkkkkkkkk",
":;;;--=***********************   xxxxxxvvllllxxxxx exx   lllllllllll1111llll     eexxxxx      11   aaaaaaaaaaaaaaasggghkkkkkkkkk",
":;;;--=***********************   xxxxvvvvzzzlllxxx exx   1lllllllllllllll11      eexxxxxxe        aaaaaaaaaaaaaaaasggghkkkkkkkkk",
":;;;--=************************  xxxxxxvvzzzzlzllx  xx   111llllllllllllll       eexxxxxxx        aaaaaaaaaaaaaaaasggghkkkkkkkkk",
":;;;--=************************   xxxxxxxlzzllzlll  ex   11111llllllllll1         eexxxxxx   aaaaaaaaaaaaaaaaaaaaasggghkkkkkkkkk",
":;;;--=*************************  xxxxxxxllzzlllll  ex   11111111111111      aa    eeexxx   aaaaaaaaaaaaaaaaaaaaaasggghkkkkkkkkk",
":;;;--=*************************   xxxxxxxllllllll  ee                      aa              aaaaaaaaaaaaaaaaaaaaaasggghkkkkkkkkk",
":;;;--=**************************   xxxxxxllllllll  ee                    aaaa  11         aaaaaaaaaaaaaaaaaaaaaaasggghkkkkkkkkk",
":;;;--****************************   xxxxxllllllll ee                   aaaaaa  111      aaaaaaaaaaaaaaaaaaaaaaaaasggghkkkkkkkkk",
":;;;--=****************************   xxxxxllllll ee        47ryaa      aaaaaa   11  aaaaaaaaaaaaaaaaaaaaaaaaaaaaasggghkkkkkkkkk",
":;;;--=*****************************   xxxxlllll  e         +@#$%      aaaaaaa       aaaaaaaaaaaaaaaaaaaaaaaaaaaaasggghkkkkkkkkk",
":;;;--=******************************   xxxllll  e   ..     +@#$%      %%%%%aaa     aaaaaaaaaaaaaaaaaaaaaaaaaaaaaasggghkkkkkkkkk",
":;;;--=*******************************   xxlll      ....     @#$%     %%%%%%%%%aaaaaaaaaaaaaaaaaaaaaaaaaaaaaaaaaaasgggghkkkkkkkk",
":;;;--=********************************   xll  e   .....     @#$%    %%%%%%%%%%%%aaaaaaaaaaaaaaaaaaaaaaaaaaaaaaaaasggghkkkkkkkkk",
":;;;--=*********************************   l  ee  ....       @#$       %%%%%%%%%%%aaaaaaaaaaaaaaaaaaaaaaaaaaaaaaaasggghkkkkkkkkk",
":;;;--=**********************************     e  ....        @#$        %%%%%%%%%%%aaaaaaaaaaaaaaaaaaaaaaaaaaaaaaasggghkkkkkkkkk",
":;;;--=***********************************      .........XoO+@#$%%%%%%%%%%%%%%%%%%%aaaaaaaaaaaaaaaaaaaaaaaaaaaaaaasdgghkkkkkkkkk",
":;;;--=************************************    ..........XoO+@#$%%%%%%%%%%%%%%%%%%%aaaaaaaaaaaaaaaaaaaaaaaaaaaaaaasggggkkkkkkkkk",
":;;;--=*************************************  ...........XoO+@#$%%%%%%%%%%%%%%%%%%%aaaaaaaaaaaaaaaaaaaaaaaaaaaaaaasggggkkkkkkkkk",
":;;;--=**************************************............XoO+@#$%%%%%%%%%%%%%%%%%%aaaaaaaaaaaaaaaaaaaaaaaaaaaaaaaasggghkkkkkkkkk",
":;;;--=***************************************...........XoO+@#$%%%%%%%%%%%%%%%%%aaaaaaaaaaaaaaaaaaaaaaaaaaaaaaaaasggghkkkkkkkkk",
":;;;--=*****************************************.........XoO+@#$%%%%%%%%%%%%%%%aaaaaaaaaaaaaaaaaaaaaaaaaaaaaaaaaaasdgghkkkkkkkkk",
":;;;--=********************************************......XoO+@#$%%%%%%%%%%%%aaaaaaaaaaaaaaaaaaaaaaaaaaaaaaaaaaaaaasdgghkkkkkkkkk",
":;;;-==*************************************************.XoO+@#$%%%%%%%aaaaaaaaaaaaaaaaaaaaaaaaaaaaaaaaaaaaaaaaaaasggghkkkkkkkkk",
":;;;-==**************************************************;,247ryaaaaaaaaaaaaaaaaaaaaaaaaaaaaaaaaaaaaaaaaaaaaaaaaaasggghkkkkkkkkk",
":;;;--=**************************************************;,247ryaaaaaaaaaaaaaaaaaaaaaaaaaaaaaaaaaaaaaaaaaaaaaaaaaasdgghkkkkkkkkk",
":;;;--=**************************************************;,247ryaaaaaaaaaaaaaaaaaaaaaaaaaaaaaaaaaaaaaaaaaaaaaaaaaassgghkkkkkkkkk",
":;;;--=**************************************************;,247ryaaaaaaaaaaaaaaaaaaaaaaaaaaaaaaaaaaaaaaaaaaaaaaaaaasggghkkkkkkkkk",
":;;;--=**************************************************;,247ryaaaaaaaaaaaaaaaaaaaaaaaaaaaaaaaaaaaaaaaaaaaaaaaaaasggghkkkkkkkkk",
":;;;--=**************************************************;,247ryaaaaaaaaaaaaaaaaaaaaaaaaaaaaaaaaaaaaaaaaaaaaaaaaaasggghkkkkkkkkk",
":;;;--=**************************************************;,247ryaaaaaaaaaaaaaaaaaaaaaaaaaaaaaaaaaaaaaaaaaaaaaaaaaasggghkkkkkkkkk",
":;;;--***************************************************;,247ryaaaaaaaaaaaaaaaaaaaaaaaaaaaaaaaaaaaaaaaaaaaaaaaaaasggghkkkkkkkkk",
":;;;--=**************************************************;,247ryaaaaaaaaaaaaaaaaaaaaaaaaaaaaaaaaaaaaaaaaaaaaaaaaaasggghkkkkkkkkk",
":;;;--=**************************************************;,247ryaaaaaaaaaaaaaaaaaaaaaaaaaaaaaaaaaaaaaaaaaaaaaaaaaasggghkkkkkkkkk",
":;;;---**************************************************;,360ryaaaaaaaaaaaaaaaaaaaaaaaaaaaaaaaaaaaaaaaaaaaaaaaaasdggggkkkkkkkkk",
":;;;;---========================*========================><47qtusssssssssssssssssssssssssssssssssssssssssssssssssdggggkkkkkkkkkk",
"::;;;;---=---------------=---------------=--------------->247qtuggggggggggggggggdgggggggggggggggggggggggggggggggdgggghkkkkkkkkkk",
"::;;;;;--------------------------------------------------,247qyagggggggggggggggggggggggggggggggggggggggggggggggggggghkkkkkkkkkkk",
"::;;;;;;;;;;;;;;;;;;;;;;;;;;;;;;;;;;;;;;;;;;;;;;;;;;;;;;;,249ryaggggggggggggggggggggggggggggggggggggggggggggggggggghkkkkkkkkkkkk",
":::;;;;;;;;;;;;;;;;;;;;;;;;;;;;;;;;;;;;;;;;;;;;;;;;;;;;;;,260ryahhhhghhghhhhhhhhhhhhghhghhhhhhhhhhhhghhghhhhhhhhhhkkkkkkkkkkkkkk",
"::::::;;;;;;;;;;;;;;;;;;;;;;;;;;;;;;;;;;;;;;;;;;;;;;;;;;;,37qtufkkkkkkkhkkkkkkkkkkkkkkkhkkkkkkkkkkkkkkkhkkkkkkkkkkkkkkkkkkkkkkkk",
":::::::::::::::::::::::::::::::::::::::::::::::::::::::::<47qtigkkkkkkkkkkkkkkkkkkkkkkkkkkkkkkkkkkkkkkkkkkkkkkkkkkkkkkkkkkkkkkkk",
":::::::::::::::::::::::::::::::::::::::::::::::::::::::::<47qtigkkkkkkkkkkkkkkkkkkkkkkkkkkkkkkkkkkkkkkkkkkkkkkkkkkkkkkkkkkkkkkkk",
":::::::::::::::::::::::::::::::::::::::::::::::::::::::::<47qtigkkkkkkkkkkkkkkkkkkkkkkkkkkkkkkkkkkkkkkkkkkkkkkkkkkkkkkkkkkkkkkkk",
":::::::::::::::::::::::::::::::::::::::::::::::::::::::::<47qtigkkkkkkkkkkkkkkkkkkkkkkkkkkkkkkkkkkkkkkkkkkkkkkkkkkkkkkkkkkkkkkkk",
":::::::::::::::::::::::::::::::::::::::::::::::::::::::::<47qtigkkkkkkkkkkkkkkkkkkkkkkkkkkkkkkkkkkkkkkkkkkkkkkkkkkkkkkkkkkkkkkkk",
":::::::::::::::::::::::::::::::::::::::::::::::::::::::::<47qtigkkkkkkkkkkkkkkkkkkkkkkkkkkkkkkkkkkkkkkkkkkkkkkkkkkkkkkkkkkkkkkkk",
":::::::::::::::::::::::::::::::::::::::::::::::::::::::::<47qtigkkkkkkkkkkkkkkkkkkkkkkkkkkkkkkkkkkkkkkkkkkkkkkkkkkkkkkkkkkkkkkkk",
":::::::::::::::::::::::::::::::::::::::::::::::::::::::::<47qtigkkkkkkkkkkkkkkkkkkkkkkkkkkkkkkkkkkkkkkkkkkkkkkkkkkkkkkkkkkkkkkkk"
};
