/* XPM */
static char *_0a9a8ac829e440b9202fd1e90c291d7I4T7KHO35S0mCqKW[] = {
/* columns rows colors chars-per-pixel */
"128 128 88 1 ",
"  c #23263E",
". c #25283F",
"X c #272C45",
"o c #282D46",
"O c #2A2F48",
"+ c #2D344E",
"@ c #30354D",
"# c #2E3551",
"$ c #303752",
"% c #333A55",
"& c #353D5B",
"* c #383F58",
"= c #37405C",
"- c #39425D",
"; c #374061",
": c #3A4465",
"> c #3F4965",
", c #3C4668",
"< c #3D4869",
"1 c #404A66",
"2 c #424D6D",
"3 c #46516E",
"4 c #48526E",
"5 c #434E70",
"6 c #465172",
"7 c #4A5574",
"8 c #4D5977",
"9 c #4B5778",
"0 c #4E5B7A",
"q c #525F7E",
"w c #54617F",
"e c #556382",
"r c #586786",
"t c #5A6886",
"y c #5A6988",
"u c #606F8D",
"i c #62718E",
"p c #667492",
"a c #687794",
"s c #6B7995",
"d c #6E7C99",
"f c #717F9B",
"g c #72819D",
"h c #7585A0",
"j c #7986A2",
"k c #7B8BA5",
"l c #7F8EA9",
"z c #808EA7",
"x c #818FA9",
"c c #8392AB",
"v c #8895AE",
"b c #8797B0",
"n c #8897B1",
"m c #8B9BB4",
"M c #909FB8",
"N c #93A0B7",
"B c #95A4BB",
"V c #97A4BB",
"C c #96A5BC",
"Z c #99A7BE",
"A c #99A8BF",
"S c #9CA8BE",
"D c #9BA9C0",
"F c #9CAAC1",
"G c #9CABC1",
"H c #A0ADC3",
"J c #A0AEC4",
"K c #A3B1C6",
"L c #A5B3C7",
"P c #A6B3C8",
"I c #A7B4C9",
"U c #AAB7CB",
"Y c #ABB7CC",
"T c #ABB8CC",
"R c #ACB8CC",
"E c #ACB9CD",
"W c #AFBCCF",
"Q c #B0BBCF",
"! c #AFBCD0",
"~ c #B2BFD2",
"^ c #B3BFD2",
"/ c #B3C0D2",
"( c #B4C1D3",
") c #B7C2D5",
"_ c #B8C4D6",
"` c #BBC7D9",
"' c #BDC8D9",
"] c #C0CBDC",
/* pixels */
"yyyyyyyyyyypsdgjkcvmmmmmmmmmmmmmmmmmmmmmmmmmmmmmmmmmmmmmmmmmmmmmmmmmmmmmmmmmmmmmmmmmmmmmmmmmmmmmmmmmmmmmmmmmmmmmmmmmmmmmmmmmmmBZ",
"yyyyyyyuiipsdgjklcvmmmmmmmmmmmmmmmmmmmmmmmmmmmmmmmmmmmmmmmmmmmmmmmmmmmmmmmmmmmmmmmmmmmmmmmmmmmmmmmmmmmmmmmmmmmmmmmmmmmmmmmmmmmBZ",
"yyyyuipppssdgjkkxcbmmmmmmmmmmmmmmmmmmmmmmmmmmmmmmmmmmmmmmmmmmmmmmmmmmmmmmmmmmmmmmmmmmmmmmmmmmmmmmmmmmmmmmmmmmmmmmmmmmmmmmmmmmmBA",
"yyyiippasddgjjklcvbmmmmmmmmmmmmmmmmmmmmmmmmmmmmmmmmmmmmmmmmmmmmmmmmmmmmmmmmmmmmmmmmmmmmmmmmmmmmmmmmmmmmmmmmmmmmmmmmmmmmmmmmmmmBZ",
"yyuipasddggjkklccvnmmmmmmmmmmmmmmmmmmmmmmmmmmmmmmmmmmmmmmmmmmmmmmmmmmmmmmmmmmmmmmmmmmmmmmmmmmmmmmmmmmmmmmmmmmmmmmmmmmmmmmmmmmmBZ",
"yyipasdfgjjkklccvbnmmmmmmmmmmmmmmmmmmmmmmmmmmmmmmmmmmmmmmmmmmmmmmmmmmmmmmmmmmmmmmmmmmmmmmmmmmmmmmmmmmmmmmmmmmmmmmmmmmmmmmmmmmmBZ",
"yypasdfgjklllccvbnnmmmmmmmmmmmmmmmmmmmmmmmmmmmmmmmmmmmmmmmmmmmmmmmmmmmmmmmmmmmmmmmmmmmmmmmmmmmmmmmmmmmmmmmmmmmmmmmmmmmmmmmmmmmBZ",
"yypaddgjkxcccvvbnnnmmmmmmmmmmmmmmmmmmmmmmmmmmmmmmmmmmmmmmmmmmmmmmmmmmmmmmmmmmmmmmmmmmmmmmmmmmmmmmmmmmmmmmmmmmmmmmmmmmmmmmmmmmmBZ",
"yypsdgjklvbbbbnnmmmmmmmmmmmmmmmmmmmmmmmmmmmmmmmmmmmmmmmmmmmmmmmmmmmmmmmmmmmmmmmmmmmmmmmmmmmmmmmmmmmmmmmmmmmmmmmmmmmmmmmmmmmmmmBZ",
"yupsfjklcnmmmmmmmmmmmmmmmmmmmmmmmmmmmmmmmmmmmmmmmmmmmmmmmmmmmmmmmmmmmmmmmmmmmmmmmmmmmmmmmmmmmmmmmmmmmmmmmmmmmmmmmmmmmmmmmmmmmmBA",
"yupdgjkcbmNmmmmmmmmmmmmmmmmmmmmmmmmmmmmmmmmmmmmmmmmmmmmmmmmmmmmmmmmmmmmmmmmmmmmmmmmmmmmmmmmmmmmmmmmmmmmmmmmmmmmmmmmmmmmmmmmmmmBZ",
"yiadhkcvmBCBNNNMmmmmmmmmmmmmmmmmmmmmmmmmmmmmmmmmmmmmmmmmmmmmmmmmmmmmmmmmmmmmmmmmmmmmmmmmmmmmmmmmmmmmmmmmmmmmmmmmmmmmmmmmmmmmmmBZ",
"yisfjkcmNADAZCBNNmmmmmmmmmmmmmmmmmmmmmmmmmmmmmmmmmmmmmmmmmmmmmmmmmmmmmmmmmmmmmmmmmmmmmmmmmmmmmmmmmmmmmmmmmmmmmmmmmmmmmmmmmmmmmBZ",
"yisgjcnmBHJFFACBNMmmmmmmmmmmmmmmmmmmmmmmmmmmmmmmmmmmmmmmmmmmmmmmmmmmmmmmmmmmmmmmmmmmmmmmmmmmmmmmmmmmmmmmmmmmmmmmmmmmmmmmmmmmmmBZ",
"ypsgkcmNALPKFFDCBNmmmmmmmmmmmmmmmmmmmmmmmmmmmmmmmmmmmmmmmmmmmmmmmmmmmmmmmmmmmmmmmmmmmmmmmmmmmmmmmmmmmmmmmmmmmmmmmmmmmmmmmmmmmmBA",
"ypdgkvmCFUTIKJFACNmmmmmmmmmmmmmmmmmmmmmmmmmmmmmmmmmmmmmmmmmmmmmmmmmmmmmmmmmmmmmmmmmmmmmmmmmmmmmmmmmmmmmmmmmmmmmmmmmmmmmmmmmmmmBA",
"ypdjxnNALEWTIKFDCBMmmmmmmmmmmmmmmmmmmmmmmmmmmmmmmmmmmmmmmmmmmmmmmmmmmmmmmmmmmmmmmmmmmmmmmmmmmmmmmmmmmmmmmmmmmmmmmmmmmmmmmmmmmmBZ",
"ypdjcmBFU((!YIJFZBNmmmmmmmmmmmmmmmmmmmmmmmmmmmmmmmmmmmmmmmmmmmmmmmmmmmmmmmmmmmmmmmmmmmmmmmmmmmmmmmmmmmmmmmmmmmmmmmmmmmmmmmmmmmBZ",
"ypfkvMZLE_`(^ULJDCNmmmmmmmmmmmmmmmmmmmmmmmmmmmmmmmmmmmmmmmmmmmmmmmmmmmmmmmmmmmmmmmmmmmmmmmmmmmmmmmmmmmmmmmmmmmmmmmmmmmmmmmmmmmBZ",
"ypfkvMSLQ'')^EIKFZNmmmmmmmmmmmmmmmmmmmmmmmmmmmmmmmmmmmmmmmmmmmmmmmmmmmmmmmmmmmmmmmmmmmmmmmmmmmmmmmmmmmmmmmmmmmmmmmmmmmmmmmmmmMBZ",
"ypfkvMSLQ''_/EUPJFZNNNNNNNNNNNNNNNNNNNNNNNNNNNNNNNNNNNNNNNNNNNNNNNNNNNNNNNNNNNNNNNNNNNNNNNNNNNNNNNNNNNNNNNNNNNNNNNNNNNNNNNNNNBZA",
"ypfkvMSLQ''_)^EUPJFDZZZZDDZZZZZZZZZZZZZZZZZZZZZZZZZZZZDDZZZDZZZZDDZZZZZZZZZZZZDDZZZZZZZZZZZZZZZZZZZDZZZZDDZZZZZZZZZDZZZZZZZZZADF",
"ypfkvMSLQ''`)^^EUPKFFFFFFFFFFFFFFFFFFFFFFFFFFFFFFFFFFFFFFFFFFFFFFFFFFFFFFFFFFFFFFFFFFFFFFFFFFFFFFFFFFFFFFFFFFFFFFFFFFFFFFFFFFFFF",
"ypfkvMSLQ''`_)^WEUIPPLLLPPPLLLLLPPLLLPPPPPLLLLLLLLLLLLPPLLPPPLLPPPPLLLLLLLLLLLPPPPLLLPPPPPLLLLLLLLPPPLLLPPPLLLLLLLPPPLLPLLLLLLJF",
"ypfkvMSLQ'''_))^^EEUUUUUUUUUUUUUYYUUUUUUUUUUUUUUUUUUUUUUUUUUUUUUUUUUUUUUUUUUUUUUYYUUUUUUUUUUUUUUUYYYUUUUUUUUUUUUUYYYUUUUUUUUUIKJ",
"ypfkvMSLQ'''`_))(^^EEEEEEEEEEEEE!!EEEEEEEEEEEEEEEEEEEEEE!!EEEEEEEEEEEEEEEEEEEEEE!!EEEEEEEEEEEEEEE!E!EEEEEEEEEEEEE!E!EEEEEEEEETPJ",
"ypfkvMSLQ''''`__)))^^^^^^^^^^^^^^^^^^^^^^^^^^^^^^^^^^^^^^^^^^^^^^^^^^^^^^^^^^^^^^^^^^^^^^^^^^^^^^^^^^^^^^^^^^^^^^^^^^^^^^^^^^EUK",
"ypfkvMSLQ']'''````___________________________________________________________________________________________________________^YL",
"ypfkvMSLQ']]]]]]]]]]]]]]]]]]]]]]]]]]]]]]]]]]]]]]]]]]]]]]]]]]]]]]]]]]]]]]]]]]]]]]]]]]]]]]]]]]]]]]]]]]]]]]]]]]]]]]]]]]]]]]]]]]'_EP",
"ypdjcmBFU^)))))))))))))))))))))))))))))))))))))))))))))))))))))))))))))))))))))))))))))))))))))))))))))))))))))))))))))))))))^UH",
"ypdgkvmBFUEEEEEEEEEEEEEEEEEEEEEEEEEEEEEEEEEEEEEEEEEEEEEEEEEEEEEEEEEEEEEEEEEEEEEEEEEEEEEEEEEEEEEEEEEEEEEEEEEEEEEEEEEEEEEEEEEEELFZ",
"yisgjxvmBFHHHHHHHHHHHHHHHHHHHHHHHHHHHHHHHHHHHHHHHHHHHHHHHHHHHHHHHHHHHHHHHHHHHHHHHHHHHHHHHHHHHHHHHHHHHHHHHHHHHHHHHHHHHHHHHHHHHSBM",
"yuadgjxvmBBBBBBBBBBBBBBBBBBBBBBBBBBBBBBBBBBBBBBBBBBBBBBBBBBBBBBBBBBBBBBBBBBBBBBBBBBBBBBBBBBBBBBBBBBBBBBBBBBBBBBBBBBBBBBBBBBBBMmv",
"yupsfgjkcnmmmmmmmmmmmmmmmmmmmmmmmmmmmmmmmmmmmmmmmmmmmmmmmmmmmmmmmmmmmmmmmmmmmmmmmmmmmmmmmmmmmmmmmmmmmmmmmmmmmmmmmmmmmmmmmmmmmvcz",
"yypasfgjkzccccccccccccccccccccccccccccccccccccccxccccccccccccxccccccccccxccccccccccccxccccccccccccccccccccccccccccccccccccccczkj",
"yyipasdfgjjjjjjjjjjjjjjjjjjjjjjjjjjjjjjjjjjjjjjjjjjjjjjjjjjjjjjjjjjjjjjjjjjjjjjjjjjjjjjjjjjjjjjjjjjjjjjjjjjjjjjjjjjjjjjjjjjjjjgf",
"yyyiipassdddddddddddddddddddddddddddddddddddddddddddddddddddddddddddddddddddddddddddddddddddddddddddddddddddddddddddddddddddddss",
"yyyyyyuuuuiiiiiiiiiiiiiiiiiiiiiiiiiiiiiiiiiiiiiiiiiiiiiiiiiiiiiiiiiiiiiiiiiiiiiiiiiiiiiiiiiiiiiiiiiiiiiiiiiiiiiiiiiiiiiiiiiiiiiu",
"yyyyyyyyyyyyyyyyyyyyyyyyyyyyyyyyyyyyyyyyyyyyyyyyyyyyyyyyyyyyyyyyyyyyyyyyyyyyyyyyyyyyyyyyyyyyyyyyyyyyyyyyyyyyyyyyyyyyyyyyyyyyyyyy",
"eeeerrrryyyyyyyyyyyyyyyyyyyyyyyyyyyyyyyyyyyyyyyyyyyyyyyyyyyyyyyyyyyyyyyyyyyyyyyyyyyyyyyyyyyyyyyyyyyyyyyyyyyyyyyyyyyyyyyyyyyyyyyy",
"eeeeeerrryyyyyyyyyyyyyyyyyyyyyyyyyyyyyyyyyyyyyyyyyyyyyyyyyyyyyyyyyyyyyyyyyyyyyyyyyyyyyyyyyyyyyyyyyyyyyyyyyyyyyyyyyyyyyyyyyyyyyyr",
"qqqeeeeeryyyyyyyyyyyyyyyyyyyyyyyyyyyyyyyyyyyyyyyyyyyyyyyyyyyyyyyyyyyyyyyyyyyyyyyyyyyyyyyyyyyyyyyyyyyyyyyyyyyyyyyyyyyyyyyyyyyyyre",
"880qweeeryyyyyyyyyyyyyyyyyyyyyyyyyyyyyyyyyyyyyyyyyyyyyyyyyyyyyyyyyyyyyyyyyyyyyyyyyyyyyyyyyyyyyyyyyyyyyyyyyyyyyyyyyyyyyyyyyyyyyre",
"7980qweeeyyyyyyyyyyyyyyyyyyyyyyyyyyyyyyyyyyyyyyyyyyyyyyyyyyyyyyyyyyyyyyyyyyyyyyyyyyyyyyyyyyyyyyyyyyyyyyyyyyyyyyyyyyyyyyyyyyyyyee",
"67780qeeeyyyyyyyyyyyyyyyyyyyyyyyyyyyyyyyyyyyyyyyyyyyyyyyyyyyyyyyyyyyyyyyyyyyyyyyyyyyyyyyyyyyyyyyyyyyyyyyyyyyyyyyyyyyyyyyyyyyyyee",
"567780qeeyyyyyyyyyyyyyyyyyyyyyyyyyyyyyyyyyyyyyyyyyyyyyyyyyyyyyyyyyyyyyyyyyyyyyyyyyyyyyyyyyyyyyyyyyyyyyyyyyyyyyyyyyyyyyyyyyyyyree",
"<56798qeeyyyyyyyyyyyyyyyyyyyyyyyyyyyyyyyyyyyyyyyyyyyyyyyyyyyyyyyyyyyyyyyyyyyyyyyyyyyyyyyyyyyyyyyyyyyyyyyyyyyyyyyyyyyyyyyyyyyyree",
":<26780qeyyyyyyyyyyyyyyyyyyyyyyyyyyyyyyyyyyyyyyyyyyyyyyyyyyyyyyyyyyyyyyyyyyyyyyyyyyyyyyyyyyyyyyyyyyyyyyyyyyyyyyyyyyyyyyyyyyyyree",
":<26678qeerrrrrrrrrrrrrrrrrrrrrrrrrrrrrrrrrrrrrrrrrrrrrrrrrrrrrrrrrrrrrrrrrrrrrrrrrrrrrrrrrrrrrrrrrrrrrrrrrrrrrrrrrrrrrrrrrrreew",
":<256798qeeeeeeeeeeeeeeeeeeeeeeeeeeeeeeeeeeeeeeeeeeeeeeeeeeeeeeeeeeeeeeeeeeeeeeeeeeeeeeeeeeeeeeeeeeeeeeeeeeeeeeeeeeeeeeeeeeeeeeq",
":,<266798qeeqqqqqqqqqqqqqqqqqqqqqeqqqqqqqeqqqqqqqqqqqqqqqqqqqqqqqqqqqqqqqqqqqqqqqeqqqqqqqeqqqqqqqqqqqqqqqqqqqqqqqqqqqqqqqqqqqeqq",
":,<256679800000000000000000000000000000000000000000000000000000000000000000000000000000000000000000000000000000000000000000000qq",
":,<<226677999999999999999999999999999999999999999999999999999999999999999999999999999999999999999999999999999999999999999999988q",
":,<<225666777777777777777777777777777777777777777777777777777777777777777777777777777777777777777777777777777777777777777777778q",
"::,<<<22566666666666666666666666666666666666666666666666666666666666666666666666666666666666666666666666666666666666666666666698",
"::,,<<<<222222222222222222222222222222222222222222222222222222222222222222222222222222222222222222222222222222222222222222222678",
"::::,,,,,<<<<<<<<<<<<<<<<<<<<<<<<<<<<<<<<<<<<<<<<<<<<<<<<<<<<<<<<<<<<<<<<<<<<<<<<<<<<<<<<<<<<<<<<<<<<<<<<<<<<<<<<<<<<<<<<<<<<278",
"::::::::::::::::,,::::::::::,,,:::::::::,,::::::::::::::::::::::::::::::::::,,,:::::::::,,::::::::::,,,:::::::::,,:::::::::::278",
"::,,<<222222222222222222222222222222222222222222222222<<<<<<<222222222222222222222222222222222222222222222222222222222222222268q",
":,<22256779999999999999999999999999999999999999977776665222256667799999999999999999999999999999999999999999999999999999999999qwr",
":,226778qqqqqqqqqqqqqqqqqqqqqqqqqqqqqqqqqqqqqqqqqqq88977666677788qqqqqqqqqqqqqqqqqqqqqqqqqqqqqqqqqqqqqqqqqqqqqqqqqqqqqqqqqqqqery",
":<2678qqerytyyyyttyyyyyyyyyyttyyyyytyyyyttyytttyrreeqq88777988qqeeryyyyyyyyyttyyyyytyyyyttyyyyyyyyyyttyyyyytyyyyttyyyyyyyyyytyuu",
":<278qertuiiiiiiiiiiiiiiiiiiiiiiiiiiiiiiiiiiiiiiuuyyreeq8780qeertyuiiiiiiiiiiiiiiiiiiiiiiiiiiiiiiiiiiiiiiiiiiiiiiiiiiiiiiiiiiipp",
":267qeryiassssssssssssssssssssssssssssssssssssssapiuyyreq8qeeryyupasssssssssssssssssssssssssssssssssssssssssssssssssssssssssssss",
":268qryisggggggggggggggggggggggggggggggggggggggggdsaiuyreqeeyyupasfggggggggggggggggggggggggggggggggggggggggggggggggggggggggggggf",
":27qeypsgkkkkkkkkkkkkkkkkkkkkkkkkkkkkkkkkkkkkkkkkjgdspiyyeryuppsfgkkkkkkkkkkkkkkkkkkkkkkkkkkkkkkkkkkkkkkkkkkkkkkkkkkkkkkkkkkkkjj",
":27etisgkvnnnnnnnnnnbbbbnnnnnnnnnnbbnnnnnnnnbbbbbckjgdspuyyipsdgklvnnnnnbbbnnnnnnnnnbbbbnnnnnnnnnnbbnnnnnnnnbbbbnnnnnnnnnnbbnvcl",
":29eypdjknmmnnnnnnnnnnnnnnnnnnnnnnnnnnnnnnnnnnnnbckjgdspyyyipsgjkcbnmnnnnnnnnnnnnnnnnnnnnnnnnnnnnnnnnnnnnnnnnnnnnnnnnnnnnnnnnvck",
":29eypdjlnmnnnnbvvvccccccccccccccccccccccccccccccljgdspiyeyypsfgkcbmnnnnnbvvcccccccccccccccccccccccccccccccccccccccccccccccccclk",
":29eypdjlnnnnbvcccclllllllllllllllllllllllllllllljgdspiyreeyiadgjlbmnnnvvccclllllllllllllllllllllllllllllllllllllllllllllllllkkj",
":29eypdjlnnnbvccllkkkkkkkkkkkkkkkkkkkkkkkkkkkkkkkgdspiyre0eyupsgjlnnnbvvcclkkkkkkkkkkkkkkkkkkkkkkkkkkkkkkkkkkkkkkkkkkkkkkkkkkjjg",
":29eypdjlnnnvcclkkjjjjjjjjjjjjjjjjjjjjjjjjjjjjjjgdspiyyeq8qeypsfjlbnnvvcclkjjjjjjjjjjjjjjjjjjjjjjjjjjjjjjjjjjjjjjjjjjjjjjjjjjggd",
":29eypdjlnnncclkjjggggggggggggggggggggggggggggggddaiyyee878etiadjkbnnvclkkjjgggggggggggggggggggggggggggggggggggggggggggggggggdds",
":29eypdjlnnvclkjjgddddddddddddddddddddddddddddddsaiyyee0767qruadgkbnbcclkjggdddddddddddddddddddddddddddddddddddddddddddddddddssa",
":29eypdglnnvckkjgdsppppppppppppppppppppppppppppppiyrew096278eypsgkvnbclkjgfdappppppppppppppppppppppppppppppppppppppppppppppppppp",
":29eypdjlnncxkjgdspuuuuuuuyyyyyuuuuuuuyyuuuuuuuuyyreq8762<58wtisgkvnvckkjgdpiuuuuuuuuuuuuuyyyyyuuuuuuuyyuuuuuuuuyyyyuuuuyyyyuuyy",
":29eypdjlnncljgdspuyyyyyyyyyyyyyyyyyyyyyyyyyyyyyyeeq8762<,27qruafkvnvckjgdapyyyyyyyyyyyyyyyyyyyyyyyyyyyyyyyyyyyyyyyyyyyyyyyyyyyy",
";27qyisgkvvlkjgdapyyyyyyyyyyyyyyyyyyyyyyyyyyyyyyreq89762,:<68eypdjcvckjgdspiyyyyyyyyyyyyyyyyyyyyyyyyyyyyyyyyyyyyyyyyyyyyyyyyyyyr",
"&<6qeypdglckjgdsppyyyyyyyyyyyyyyyyyyyyyyyyyyyyyyreq87622,;,29qrusgkckkjgdspiyyyyyyyyyyyyyyyyyyyyyyyyyyyyyyyyyyyyyyyyyyyyyyyyyyrr",
"&,28wtisgkkjgfdspiyyyyyyyyyyyyyyyyyyyyyyyyyyyyyyreq8762<;&;27qetidjkkjgdsapuyyyyyyyyyyyyyyyyyyyyyyyyyyyyyyyyyyyyyyyyyyyyyyyyyyre",
"%;27qryidjjgfdsppiyyyyyyyyyyyyyyyyyyyyyyyyyyyyyyreq8742,;%->48wrusgjjgddspiyyyyyyyyyyyyyyyyyyyyyyyyyyyyyyyyyyyyyyyyyyyyyyyyyyree",
"%-148wyiaggddsappyyyyyyyyyyyyyyyyyyyyyyyyyyyyyyyreq862>:&%*:27qetpdggdssppiyyyyyyyyyyyyyyyyyyyyyyyyyyyyyyyyyyyyyyyyyyyyyyyyyyree",
"#*:27qryiddsspppiyyyyyyyyyyyyyyyyyyyyyyyyyyyyyyyre0762>;*#%-148qrusddsappiuyyyyyyyyyyyyyyyyyyyyyyyyyyyyyyyyyyyyyyyyyyyyyyyyyyrew",
"+%-148wrypapppiuyyyyyyyyyyyyyyyyyyyyyyyyyyyyyyyyre0742:-%#$*:278wtpsppppiuyyyyyyyyyyyyyyyyyyyyyyyyyyyyyyyyyyyyyyyyyyyyyyyyyyyrwq",
"+$*:278wyipiiuyyyyyyyyyyyyyyyyyyyyyyyyyyyyyyyyyyrw8741:*%+#*-147qrupiiiuuyyyyyyyyyyyyyyyyyyyyyyyyyyyyyyyyyyyyyyyyyyyyyyyyyyyyrwq",
"X+%->270eyyyyyyyyyyyyyyyyyyyyyyyyyyyyyyyyyyyyyyyrw872>-*#o+%*:148qryyyyyyyyyyyyyyyyyyyyyyyyyyyyyyyyyyyyyyyyyyyyyyyyyyyyyyyyyyew8",
"X+$=:248qerrrrrryyyyrrrrrrrrrrrrrrrrrrrrrrrrrrrreq842:-%+X+#*->278errryyrrrrrrrrrrrrrrrrrrrrrrrrrrrrrrrrrrrrrrrrrrrrrrrrrrrrreq8",
"X+$*->278qwwwwwweewewwwwwwwwwwwwwwwwwwwwwwwwwwwwq872>-*%+X++%=:127qwwwwwwwwwwwwwwwwwwwwwwwwwwwwwwwwwwwwwwwwwwwwwwwwwwwwwwwwwwq87",
"X++%*:12788888qq88qq888888888888888888qq8qqq88888731:=*$+XO+$*-:14888888888888qq88qq888888888888888888qq88qq88888888888888888876",
"X++$*-:12777777777777777777777777777777777777777721:-*%++XO+$%*-:247777777777777777777777777777777777777777777777777777777777742",
"XO+$%*-:122222222233222222223222222322232232222221:-*%$++Xo++$*=->22222222232223223322222222322222232223223322222222322222222222",
"XO++$%*-->>>>>>>>>11>>>>>>>>1111>>>>1111>>1>>>>>>:-*%$$+OXo++#%*=-:>1>>>>>>>1111>>11>>>>>>>>1111>>>>1111>>11>>>>>>>>1111>>>>1111",
"Xo+++$%**----------------------------------------**%$+++OXoO++$$%*------------------------------------------------------------::",
"XoO++++$$%%%%%%%%%%%%%%%%%%%%%%%%%%%%%%%%%%%%%%%%$$#+++OoXXOO+++#$%%%%%%%%%%%%%%%%%%%%%%%%%%%%%%%%%%%%%%%%%%%%%%%%%%%%%%%%%%%*=-",
"XXooO++++++++++++++++++++++++++++++++++++++++++++++++OOoXXXooO+++++++++++++++++++++++++++++++++++++++++++++++++++++++++++++++$%*",
"XXXXXXXXXXXXXXXXXXXXXXXXXXXXXXXXXXXXXXXXXXXXXXXXXXXXXXXXXXXXXXXXXXXXXXXXXXXXXXXXXXXXXXXXXXXXXXXXXXXXXXXXXXXXXXXXXXXXXXXXXXXXo+$%",
"XXXXXooOOOOOOOOOOOOOOOOOOOOOooOOOOOOooo+OOOOOOOOOOOOOOOOOOOOooOOOOOOOoOOOOOOOOOOOooOOOOOOOOOOoXXXXooOOOOOOOOOOOOOOOOOOOOOOOOO+$*",
"XXoO+++++++++++++++++++++++++++++++++++++++++++++++++++++++++++++++++++++++++++++++++++++++++++OO++++++++++++++++++++++++++++$*-",
"XXO++++$$%%%%%%%%*%%%%%%%%%%%%%%%%**%%%%%%%%%%%%%*%%%%%%%%%%%%%%%%%%*%%%%%%%%%%%%%*%%%%%%$$$##+++++##$$%%%%%%%%%%*%%%%%%%%%%%*-:",
"Xo+++$%%*=------====-----------=-----===--------====-----------=------==--------=------=***%%$####$%%%***-------====----------:>",
"XO++$%*=-::::::::::::::::::>>>::::::>:>::::::::::::::::::::>>>::::::>>:::::::::::::>::::---**%%#%%%***--:::::::::::::::::::>>>11",
"XO+$%*-:>22222222222222222222222222222222222222222222222222222222222222222222222222222221,::-&*%%&&--:,>222222222222222222222222",
"X++$*-:127777777777777777777777777777777777777777777777777777777777777777777777777777776422>,;-&&-;:,<24477777777777777777777777",
"X+@%=:1278qq0888qq00088888888888888888q088qq0888qq000888888888888888088888qq08888888888876422,;&;;,<2267880q0888qq00088888888888",
"X+$*:1378weeeeeeeeeeeeeeeeeeeeeeeeeeeeeeeeeeeeeeeeeeeeeeeeeeeeeeeeeeeeeeeeeeeeeeeeeeeeew087622<::,226780weeeeeeeeeeeeeeeeeeeeeq0",
"X+$=:248qeyyyyrrrrrrrrrrrrrrrrrrrrrrrrrryrrrrrrrrrrrrrrrrrrrrrrrrrrrrrrryrrrrrrrrrrrrrrew08762<::<25678weryyyyrrrrrrrrrrrrrrreeq",
"X+$=:248wryyyyrrreeeeeeeeeeeeeeeeeeeeeeereeeeeeeeeeeeeeeeeeeeeeeeeeeeeeereeeeeeeeeeeeeeeq87662<;:,22678weyyyyyrrreeeeeeeeeeeeeeq",
"X+%=:248wryyrreeeeeeeeeeeeeeeeeeeeeeeeeeeeeeeeeeeeeeeeeeeeeeeeeeeeeeeeeeeeeeeeeeeeeeeeeq87762<:;;:<2678qeyyyrreeeeeeeeeeeeeeewq8",
"X+%=:248qryrreeeeeqqqqqqqqqqqqqqqqqqqqqqqqqqqqqqqqqqqqqqqqqqqqqqqqqqqqqqqqqqqqqqqqqqqqq88762<:;&&;>2678qeyyreeeeeeqqqqqqqqqqq089",
"X+$=:248qryreeeeqq00800080888800808800088000888888808000808888008088000880008888800888877622,;-&&;,2278qeyyreeeeqq88000088888877",
"X+$=:278qryeeeeq08879999777799777777997777979977777799997777997777779977779799779997777662<,;&&%%&:>268qeyyeeeeq0897999977777766",
"X+$=:278qryeeeq08976666666666666666666666666666666666666666666666666666666666666666666622<,:-*%#%*-,247qeyreeeq88776666666666665",
"X+$=:278qryeeq08776222222255552255222222225555222252222222555522552222222255552222522222<:;-*%#+#%-:147qeyreeq087655222222255522",
"X+$*:278qrreeq897652222222222222222222222222222222222<2222222222222222222222222222222<<,:;-*%%#++$*->270eyreeq8776222<2222222<<<",
"X+%=:278qrreq89765<,::::::::::::,,,:,:::::::::::,,::,:::::::::::,,,:,:::::::::::,,::::::;&&%##+o+#%-:278erreq09762,,:,::::::::::",
"X+%=:278qrreq87762<::::::::::::::::::::::::::::::::::::::::::::::::::::::::::::::::::::;;&%$#+OXO+%=:278erreq09652,:::::::::::::",
"X+%=:248qrreq87662<::::::::::::::::::::::::::::::::::::::::::::::::::::::::::::::::::::;&*%$#+OXo+$=:278erreq09652,:::::::::::::",
"X+%=:248qrreq89662<::::::::::::::::::::::::::::::::::::::::::::::::::::::::::::::::::::;&&%$#+OXo+$=:278erreq09652,:::::::::::;;",
"X+$=:248qrreq89662<::::::::::::::::::::::::::::::::::::::::::::::::::::::::::::::::::::;&&%%#+OXo+$=:278erreq09652,:::::::::::;;",
"X+$=:248qryeq89762<::::::::::::::::::::::::::::::::::::::::::::::::::::::::::::::::::::;&*%%#+OX++$=:278erree09652,:::::::::::;&",
"X+%=:248qrrew09762<::::::::::::::::::::::::::::::::::::::::::::::::::::::::::::::::::::;&*%%#+OX++%=:278erreq09652,:::::::::::;&",
"X+$=:248qrrew89762<::::::::::::::::::::::::::::::::::::::::::::::::::::::::::::::::::::;&*%%#+OX++%=:278erreq09652,:::::::::::;&",
"X+$=:278qrreq87662<::::::::::::::::::::::::::::::::::::::::::::::::::::::::::::::::::::;;&%%#+OXo+%=:278erreq0965<,:::::::::::&&",
"X+$=:278qrreq87662<::::::::::::::::::::::::::::::::::::::::::::::::::::::::::::::::::::;;&%%#+OXo+%=:278erreq09652,:::::::::::&%",
"X+$*:248qeeeq87652<::::::::::::::::::::::::::::::::::::::::::::::::::::::::::::::::::::;&&%%#+OXo+%=:178wreeq8762<,::::::::::;&%",
"X+@*-1278wwq87622<:;;;;;;;;;;;;;;;;;;;;;;;;;;;;;;;;;;;;;;;;;;;;;;;;;;;;;;;;;;;;;;;;;;;;&&%%#++XXo+$*-127qwwq87622,;;;;;;;;;;;&%$",
".o+$*-124887422>,;-***&*****&&&*****&&&*****&&&*****&&&*****&&&*****&&&*****&&&*****&&&%%##+OoXXXo+$*-127887422>:;&***&*****&%$+",
" X+@%*-1144221:;-**%%%%%%%%%%%%%%%%%%%%%%%%%%%%%%%%%%%%%%%%%%%%%%%%%%%%%%%%%%%%%%%%%%%%$#++OoXX .X+@$*-1244211:;-*%%%%%%%%%%%#+O"
};
